<?xml version="1.0" encoding="utf-8"?>
<!-- Generator: Adobe Illustrator 12.0.0, SVG Export Plug-In . SVG Version: 6.00 Build 51448)  -->
<!DOCTYPE svg PUBLIC "-//W3C//DTD SVG 1.1//EN" "http://www.w3.org/Graphics/SVG/1.1/DTD/svg11.dtd" [
	<!ENTITY ns_svg "http://www.w3.org/2000/svg">
	<!ENTITY ns_xlink "http://www.w3.org/1999/xlink">
]>
<svg  version="1.1" id="Layer_1" xmlns="&ns_svg;" xmlns:xlink="&ns_xlink;" width="618.833" height="332.828"
	 viewBox="-141.177 -26.566 618.833 332.828" overflow="visible" enable-background="new -141.177 -26.566 618.833 332.828"
	 xml:space="preserve">
<g transform="matrix(1 0 0 1 132.242 146.532)">
	<path fill="none" stroke="#FFFFFF" stroke-linecap="round" stroke-linejoin="round" stroke-miterlimit="10.0375" d="
		M326.599,19.265c0-62.439-50.618-113.056-113.056-113.056c-62.438,0-113.057,50.616-113.057,113.056
		c0,62.438,50.618,113.055,113.057,113.055C275.981,132.32,326.599,81.704,326.599,19.265z"/>
</g>
<g transform="matrix(1 0 0 1 132.242 146.532)">
	
		<path fill="none" stroke="#FFFFFF" stroke-linecap="round" stroke-linejoin="round" stroke-miterlimit="10.0375" stroke-dasharray="4.0343 4.0343" d="
		M326.599,19.265c0-24.976-50.618-45.223-113.056-45.223c-62.438,0-113.057,20.247-113.057,45.223
		c0,24.975,50.618,45.223,113.057,45.223C275.981,64.488,326.599,44.24,326.599,19.265z"/>
</g>
<g transform="matrix(1 0 0 1 132.242 146.532)">
	<path fill="none" stroke="#FFFFFF" stroke-linecap="round" stroke-linejoin="round" stroke-miterlimit="10.0375" d="M213.543-103.2
		V19.265"/>
</g>
<g transform="matrix(1 0 0 1 132.242 146.532)">
	<path fill="#FFFFFF" d="M213.543-116.79l-3.026,13.59h6.051L213.543-116.79z"/>
</g>
<g transform="matrix(1 0 0 1 132.242 146.532)">
	<path fill="none" stroke="#FFFFFF" stroke-linecap="round" stroke-linejoin="round" stroke-miterlimit="10.0375" d="
		M332.242,19.265H213.543"/>
</g>
<g transform="matrix(1 0 0 1 132.242 146.532)">
	<path fill="#FFFFFF" d="M345.414,19.265l-13.172-3.027v6.053L345.414,19.265z"/>
</g>
<g transform="matrix(1 0 0 1 132.242 146.532)">
	<path fill="none" stroke="#FFFFFF" stroke-linecap="round" stroke-linejoin="round" stroke-miterlimit="10.0375" d="
		M165.659,67.652l47.884-48.387"/>
</g>
<g transform="matrix(1 0 0 1 132.242 146.532)">
	<path fill="#FFFFFF" d="M154.415,79.014l14.256-8.319l-6.027-6.089L154.415,79.014z"/>
</g>
<g transform="matrix(1 0 0 1 132.242 146.532)">
	<path fill="none" stroke="#FFFFFF" stroke-linecap="round" stroke-linejoin="round" stroke-miterlimit="10.0375" d="
		M213.543,19.265l38.532-55.826"/>
</g>
<g>
	<path id="g1106_2_" fill="#FFFFFF" d="M397.429,94.037c0-0.469,0-0.935-0.52-0.935c-0.517,0-0.517,0.466-0.517,0.935v24.053
		c0,0.466,0,0.932,0.517,0.932c0.52,0,0.52-0.466,0.52-0.932V94.037z"/>
</g>
<g>
	<path id="g232" fill="#FFFFFF" d="M412.69,95.176c0-0.026,0.103-0.363,0.103-0.389c0-0.234-0.208-0.234-0.284-0.234
		c-0.234,0-0.261,0.131-0.361,0.519l-4.279,17.16c-2.152-0.259-2.955-1.349-2.955-2.902c0-0.573,0-1.167,1.218-4.381
		c0.339-0.935,0.469-1.27,0.469-1.736c0-1.167-0.831-2.102-2.051-2.102c-2.384,0-3.343,3.76-3.343,3.966
		c0,0.104,0.104,0.234,0.284,0.234c0.235,0,0.261-0.103,0.364-0.466c0.623-2.254,1.66-3.214,2.618-3.214
		c0.233,0,0.674,0.024,0.674,0.854c0,0.105,0,0.675-0.44,1.815c-1.4,3.682-1.4,4.25-1.4,4.846c0,2.489,2.074,3.449,4.406,3.63
		c-0.205,0.805-0.389,1.633-0.594,2.437c-0.418,1.555-0.598,2.28-0.598,2.384c0,0.234,0.207,0.234,0.284,0.234
		c0.053,0,0.157,0,0.21-0.104c0.104-0.103,1.167-4.459,1.268-4.925c0.959,0,3.006,0,5.342-2.411c0.855-0.932,1.63-2.124,2.072-3.24
		c0.26-0.672,0.882-2.981,0.882-4.301c0-1.556-0.779-1.739-1.038-1.739c-0.623,0-1.193,0.623-1.193,1.142
		c0,0.31,0.184,0.492,0.286,0.597c0.234,0.232,0.935,0.932,0.935,2.28c0,0.933-0.519,2.853-2.18,4.717
		c-2.177,2.437-4.172,2.437-4.949,2.437L412.69,95.176z"/>
</g>
<g>
	<path id="g1105_2_" fill="#FFFFFF" d="M425.016,106.503c0.129-0.31,0.129-0.363,0.129-0.441s0-0.128-0.129-0.441L420.48,93.7
		c-0.157-0.442-0.313-0.598-0.597-0.598c-0.287,0-0.519,0.234-0.519,0.519c0,0.079,0,0.128,0.129,0.416l4.588,12.025l-4.588,11.975
		c-0.129,0.285-0.129,0.337-0.129,0.466c0,0.287,0.231,0.519,0.519,0.519c0.335,0,0.439-0.26,0.545-0.519L425.016,106.503z"/>
</g>
<g transform="matrix(1 0 0 1 132.242 146.532)">
	
		<path fill="none" stroke="#FFFFFF" stroke-linecap="round" stroke-linejoin="round" stroke-miterlimit="10.0375" stroke-dasharray="0 2.0186" d="
		M252.075-36.56v79.138l-38.532-23.313"/>
</g>
<g transform="matrix(1 0 0 1 132.242 146.532)">
	<path fill="none" stroke="#FFFFFF" stroke-linecap="round" stroke-linejoin="round" stroke-miterlimit="10.0375" d="M223.176,5.308
		c-0.007-0.005-0.015-0.01-0.021-0.016c-0.008-0.004-0.015-0.008-0.021-0.013c-0.008-0.006-0.014-0.011-0.021-0.015
		c-0.007-0.006-0.014-0.01-0.021-0.015s-0.014-0.011-0.021-0.015s-0.015-0.01-0.022-0.015c-0.006-0.005-0.013-0.009-0.02-0.015
		c-0.008-0.004-0.016-0.009-0.022-0.014c-0.006-0.006-0.013-0.01-0.021-0.014c-0.008-0.005-0.015-0.011-0.021-0.016
		c-0.008-0.004-0.014-0.008-0.021-0.014c-0.007-0.005-0.014-0.01-0.021-0.014s-0.014-0.01-0.021-0.015s-0.015-0.009-0.022-0.015
		c-0.007-0.004-0.014-0.009-0.021-0.014c-0.006-0.004-0.014-0.01-0.021-0.014c-0.007-0.005-0.015-0.01-0.022-0.014
		c-0.007-0.006-0.014-0.01-0.02-0.015c-0.008-0.005-0.016-0.009-0.022-0.013c-0.007-0.006-0.015-0.011-0.022-0.016
		c-0.007-0.004-0.014-0.008-0.02-0.013c-0.008-0.006-0.016-0.011-0.022-0.015s-0.015-0.009-0.022-0.014
		c-0.007-0.004-0.014-0.01-0.021-0.014c-0.008-0.005-0.014-0.01-0.021-0.014s-0.015-0.009-0.022-0.014
		c-0.007-0.006-0.014-0.01-0.021-0.014c-0.008-0.005-0.015-0.01-0.021-0.014c-0.008-0.004-0.016-0.009-0.022-0.014
		c-0.006-0.006-0.013-0.01-0.021-0.014c-0.008-0.005-0.015-0.01-0.021-0.014c-0.008-0.004-0.016-0.009-0.022-0.014
		c-0.007-0.004-0.015-0.008-0.022-0.013c-0.007-0.006-0.014-0.011-0.021-0.015s-0.015-0.009-0.021-0.014
		c-0.008-0.004-0.016-0.008-0.022-0.013c-0.006-0.005-0.013-0.009-0.021-0.013c-0.008-0.005-0.015-0.01-0.021-0.014
		c-0.008-0.004-0.016-0.009-0.022-0.014c-0.007-0.004-0.015-0.008-0.022-0.013c-0.007-0.005-0.014-0.009-0.021-0.013
		c-0.008-0.005-0.015-0.01-0.021-0.014c-0.008-0.004-0.016-0.009-0.022-0.014c-0.007-0.004-0.015-0.008-0.022-0.013
		c-0.007-0.005-0.014-0.009-0.021-0.013c-0.008-0.005-0.015-0.01-0.021-0.014c-0.008-0.004-0.016-0.009-0.022-0.014
		c-0.007-0.004-0.015-0.008-0.022-0.013c-0.007-0.005-0.014-0.009-0.021-0.013c-0.009-0.005-0.016-0.01-0.023-0.014
		s-0.015-0.009-0.021-0.012c-0.008-0.004-0.016-0.009-0.022-0.014c-0.007-0.004-0.015-0.008-0.022-0.013
		c-0.007-0.005-0.014-0.009-0.021-0.013c-0.008-0.005-0.015-0.01-0.021-0.012c-0.008-0.005-0.016-0.01-0.022-0.014
		s-0.017-0.009-0.023-0.014c-0.007-0.004-0.015-0.008-0.022-0.012c-0.007-0.004-0.014-0.008-0.021-0.013s-0.015-0.009-0.021-0.013
		c-0.008-0.005-0.016-0.008-0.022-0.012c-0.009-0.005-0.017-0.01-0.023-0.014s-0.015-0.009-0.022-0.012
		c-0.007-0.004-0.014-0.009-0.021-0.014c-0.008-0.004-0.015-0.008-0.023-0.012c-0.008-0.004-0.015-0.008-0.021-0.013
		c-0.008-0.005-0.016-0.007-0.022-0.012s-0.015-0.009-0.022-0.013s-0.016-0.008-0.023-0.012c-0.007-0.005-0.014-0.01-0.021-0.012
		c-0.008-0.005-0.015-0.01-0.023-0.014c-0.008-0.004-0.015-0.008-0.021-0.012c-0.008-0.004-0.016-0.009-0.022-0.012
		c-0.007-0.004-0.017-0.009-0.023-0.014c-0.007-0.002-0.015-0.007-0.022-0.012c-0.007-0.004-0.014-0.007-0.023-0.012
		c-0.007-0.004-0.014-0.008-0.021-0.012s-0.015-0.008-0.021-0.013c-0.01-0.003-0.017-0.007-0.023-0.012
		c-0.008-0.003-0.016-0.007-0.022-0.012c-0.009-0.005-0.017-0.007-0.023-0.012s-0.015-0.007-0.022-0.012s-0.016-0.007-0.023-0.012
		c-0.007-0.005-0.014-0.007-0.021-0.012c-0.009-0.005-0.016-0.009-0.023-0.012c-0.008-0.005-0.015-0.009-0.021-0.012
		c-0.01-0.005-0.017-0.009-0.023-0.012c-0.008-0.005-0.016-0.007-0.023-0.012s-0.016-0.007-0.022-0.012s-0.017-0.007-0.023-0.012
		s-0.015-0.007-0.022-0.012c-0.008-0.003-0.016-0.007-0.023-0.012c-0.007-0.003-0.014-0.007-0.023-0.012
		c-0.007-0.003-0.014-0.007-0.021-0.011c-0.009-0.004-0.016-0.008-0.023-0.012s-0.015-0.007-0.023-0.012
		c-0.008-0.002-0.015-0.007-0.021-0.012c-0.01-0.002-0.017-0.007-0.023-0.01c-0.008-0.004-0.016-0.008-0.023-0.012
		s-0.016-0.008-0.022-0.012c-0.009-0.003-0.017-0.008-0.023-0.01c-0.007-0.005-0.017-0.008-0.023-0.012
		c-0.007-0.005-0.015-0.008-0.023-0.012c-0.007-0.004-0.015-0.008-0.022-0.011c-0.008-0.005-0.016-0.007-0.023-0.012
		c-0.007-0.003-0.016-0.007-0.023-0.011c-0.007-0.004-0.016-0.007-0.023-0.012c-0.007-0.002-0.014-0.007-0.023-0.01
		c-0.007-0.004-0.014-0.008-0.021-0.012c-0.009-0.003-0.016-0.008-0.023-0.01c-0.009-0.005-0.016-0.008-0.023-0.011
		c-0.008-0.005-0.016-0.007-0.023-0.012c-0.008-0.003-0.015-0.007-0.023-0.011c-0.008-0.004-0.015-0.007-0.023-0.012
		c-0.008-0.002-0.015-0.006-0.023-0.01c-0.008-0.003-0.015-0.008-0.021-0.01c-0.01-0.005-0.017-0.008-0.023-0.011
		c-0.01-0.005-0.017-0.007-0.023-0.012c-0.01-0.003-0.017-0.006-0.023-0.011c-0.01-0.002-0.017-0.007-0.023-0.01
		c-0.008-0.003-0.017-0.008-0.023-0.01c-0.008-0.005-0.017-0.008-0.023-0.011c-0.008-0.005-0.017-0.007-0.023-0.011
		c-0.008-0.004-0.017-0.007-0.023-0.012c-0.008-0.002-0.017-0.006-0.023-0.01c-0.008-0.003-0.017-0.006-0.023-0.01
		c-0.008-0.004-0.017-0.006-0.023-0.011c-0.008-0.003-0.017-0.006-0.023-0.011c-0.008-0.002-0.017-0.006-0.023-0.01
		c-0.008-0.003-0.017-0.006-0.023-0.01c-0.008-0.004-0.017-0.006-0.023-0.01c-0.01-0.004-0.017-0.007-0.023-0.01
		c-0.01-0.004-0.017-0.008-0.023-0.01c-0.01-0.005-0.017-0.008-0.023-0.011c-0.01-0.003-0.017-0.007-0.025-0.011
		c-0.008-0.002-0.015-0.006-0.023-0.01c-0.008-0.003-0.015-0.006-0.023-0.01c-0.008-0.004-0.015-0.006-0.023-0.01
		c-0.008-0.002-0.016-0.007-0.023-0.01s-0.016-0.006-0.023-0.01c-0.009-0.004-0.016-0.006-0.023-0.01
		c-0.009-0.004-0.016-0.007-0.023-0.01c-0.009-0.003-0.016-0.006-0.025-0.01c-0.007-0.004-0.014-0.006-0.023-0.01
		c-0.007-0.002-0.016-0.007-0.023-0.01c-0.007-0.003-0.016-0.006-0.023-0.009c-0.008-0.005-0.016-0.007-0.023-0.011
		c-0.008-0.002-0.016-0.006-0.024-0.008c-0.007-0.005-0.017-0.008-0.023-0.011s-0.017-0.006-0.023-0.009
		c-0.009-0.004-0.017-0.008-0.023-0.01c-0.009-0.004-0.017-0.006-0.024-0.01c-0.008-0.002-0.017-0.006-0.023-0.01
		c-0.008-0.003-0.017-0.006-0.023-0.009c-0.01-0.003-0.017-0.006-0.025-0.009c-0.008-0.003-0.015-0.006-0.023-0.01
		c-0.008-0.004-0.016-0.006-0.023-0.01c-0.009-0.002-0.016-0.006-0.025-0.008c-0.007-0.004-0.014-0.006-0.023-0.01
		c-0.007-0.002-0.016-0.007-0.023-0.01s-0.016-0.006-0.024-0.009c-0.007-0.003-0.015-0.006-0.023-0.009
		c-0.007-0.003-0.017-0.006-0.023-0.009c-0.009-0.003-0.017-0.006-0.024-0.009s-0.017-0.006-0.023-0.009
		c-0.01-0.003-0.017-0.006-0.023-0.009c-0.01-0.003-0.017-0.006-0.025-0.009c-0.008-0.003-0.016-0.006-0.023-0.009
		c-0.009-0.003-0.016-0.006-0.025-0.009c-0.007-0.003-0.016-0.006-0.023-0.009s-0.016-0.006-0.024-0.009
		c-0.007-0.003-0.017-0.006-0.023-0.009c-0.009-0.003-0.017-0.006-0.024-0.009s-0.017-0.006-0.023-0.009
		c-0.008-0.003-0.017-0.006-0.023-0.009c-0.01-0.003-0.017-0.006-0.025-0.009c-0.008-0.003-0.016-0.004-0.023-0.008
		c-0.009-0.002-0.016-0.006-0.025-0.008c-0.007-0.004-0.016-0.006-0.023-0.01c-0.008-0.002-0.018-0.006-0.024-0.008
		c-0.009-0.004-0.017-0.005-0.024-0.008s-0.017-0.006-0.023-0.009c-0.01-0.003-0.017-0.006-0.025-0.009
		c-0.008-0.003-0.016-0.004-0.023-0.008c-0.009-0.002-0.016-0.006-0.025-0.008c-0.007-0.004-0.016-0.006-0.023-0.008
		c-0.008-0.003-0.016-0.006-0.024-0.009c-0.007-0.003-0.017-0.006-0.024-0.007c-0.008-0.004-0.017-0.006-0.023-0.01
		c-0.01-0.002-0.017-0.006-0.025-0.007c-0.008-0.003-0.016-0.006-0.023-0.009c-0.009-0.003-0.016-0.006-0.025-0.008
		c-0.008-0.002-0.016-0.006-0.024-0.008c-0.007-0.002-0.017-0.005-0.023-0.008c-0.009-0.003-0.017-0.006-0.024-0.008
		s-0.017-0.006-0.025-0.008c-0.008-0.004-0.016-0.005-0.023-0.008c-0.009-0.003-0.016-0.004-0.025-0.008
		c-0.007-0.002-0.016-0.006-0.024-0.008c-0.007-0.002-0.017-0.005-0.023-0.008c-0.009-0.002-0.017-0.004-0.024-0.008
		c-0.01-0.002-0.017-0.004-0.025-0.007c-0.008-0.003-0.016-0.006-0.023-0.007c-0.009-0.004-0.018-0.006-0.025-0.008
		c-0.008-0.003-0.016-0.006-0.024-0.008c-0.007-0.002-0.017-0.006-0.024-0.008s-0.017-0.005-0.023-0.008
		c-0.01-0.002-0.017-0.004-0.025-0.008c-0.009-0.001-0.016-0.004-0.025-0.007c-0.007-0.001-0.016-0.005-0.024-0.006
		c-0.007-0.003-0.017-0.006-0.023-0.007c-0.009-0.004-0.018-0.006-0.024-0.008c-0.01-0.003-0.017-0.006-0.025-0.008
		s-0.016-0.004-0.025-0.007c-0.007-0.003-0.016-0.005-0.024-0.007c-0.007-0.002-0.017-0.005-0.023-0.008
		c-0.009-0.002-0.018-0.004-0.024-0.006c-0.01-0.003-0.017-0.006-0.025-0.008s-0.016-0.004-0.025-0.007
		c-0.007-0.003-0.016-0.005-0.024-0.007c-0.007-0.002-0.017-0.005-0.024-0.006c-0.008-0.004-0.017-0.005-0.023-0.008
		c-0.01-0.003-0.018-0.004-0.025-0.008c-0.009-0.001-0.016-0.004-0.025-0.006c-0.008-0.002-0.016-0.004-0.024-0.007
		c-0.009-0.001-0.017-0.005-0.024-0.006c-0.008-0.003-0.017-0.005-0.025-0.007c-0.008-0.002-0.016-0.005-0.025-0.006
		c-0.007-0.004-0.016-0.005-0.024-0.008c-0.007-0.002-0.017-0.004-0.023-0.006c-0.009-0.003-0.018-0.004-0.024-0.008
		c-0.01-0.001-0.018-0.004-0.025-0.006c-0.009-0.002-0.018-0.004-0.025-0.007c-0.008-0.001-0.018-0.003-0.024-0.006
		c-0.009-0.001-0.017-0.005-0.024-0.006c-0.01-0.003-0.017-0.005-0.025-0.007s-0.016-0.004-0.025-0.006
		c-0.008-0.002-0.016-0.005-0.024-0.006c-0.009-0.004-0.017-0.005-0.024-0.006c-0.01-0.004-0.017-0.005-0.025-0.006
		c-0.009-0.004-0.016-0.005-0.025-0.008c-0.008-0.002-0.016-0.003-0.024-0.006c-0.009-0.002-0.017-0.004-0.024-0.006
		c-0.01-0.002-0.017-0.004-0.025-0.006s-0.016-0.004-0.025-0.006c-0.008-0.002-0.016-0.004-0.024-0.006s-0.017-0.004-0.024-0.006
		c-0.01-0.002-0.017-0.004-0.025-0.006s-0.016-0.004-0.025-0.006c-0.008-0.002-0.016-0.004-0.024-0.006s-0.017-0.004-0.024-0.006
		c-0.01-0.002-0.017-0.004-0.025-0.006s-0.016-0.003-0.025-0.006c-0.008-0.002-0.016-0.003-0.024-0.006
		c-0.009-0.002-0.018-0.003-0.024-0.004c-0.01-0.004-0.018-0.005-0.025-0.006c-0.009-0.002-0.018-0.005-0.025-0.006
		c-0.008-0.002-0.018-0.004-0.024-0.006c-0.009-0.002-0.018-0.004-0.026-0.005c-0.008-0.003-0.016-0.005-0.025-0.006
		c-0.007-0.001-0.016-0.003-0.024-0.006c-0.007-0.001-0.017-0.003-0.024-0.005c-0.01-0.002-0.017-0.004-0.025-0.006
		c-0.009-0.001-0.016-0.002-0.025-0.006c-0.008-0.001-0.018-0.002-0.024-0.004c-0.009-0.002-0.018-0.003-0.024-0.006
		c-0.01-0.002-0.018-0.003-0.025-0.004c-0.009-0.002-0.018-0.004-0.026-0.006c-0.007-0.002-0.017-0.004-0.024-0.005
		s-0.017-0.003-0.025-0.005s-0.016-0.004-0.025-0.006c-0.008-0.001-0.016-0.002-0.024-0.004s-0.018-0.003-0.024-0.006
		c-0.01-0.002-0.018-0.003-0.027-0.004c-0.007-0.002-0.016-0.004-0.024-0.005c-0.007-0.001-0.017-0.003-0.024-0.005
		c-0.01-0.002-0.017-0.004-0.025-0.006c-0.009-0.001-0.018-0.002-0.025-0.004s-0.018-0.003-0.024-0.004
		c-0.009-0.002-0.018-0.004-0.026-0.005c-0.008-0.001-0.016-0.003-0.025-0.005c-0.008-0.001-0.016-0.004-0.024-0.006
		c-0.009-0.001-0.018-0.002-0.024-0.004c-0.01-0.002-0.018-0.003-0.025-0.004c-0.009-0.002-0.018-0.004-0.026-0.005
		c-0.007-0.001-0.017-0.003-0.024-0.005c-0.01-0.001-0.017-0.002-0.025-0.004s-0.018-0.003-0.025-0.004
		c-0.008-0.002-0.018-0.004-0.025-0.005s-0.017-0.003-0.025-0.005c-0.009,0-0.016-0.001-0.025-0.002
		c-0.008-0.002-0.018-0.004-0.024-0.005c-0.009-0.001-0.018-0.003-0.026-0.005c-0.008-0.001-0.016-0.002-0.025-0.004
		c-0.008-0.002-0.016-0.003-0.024-0.004c-0.009-0.002-0.018-0.004-0.024-0.004c-0.01-0.001-0.018-0.002-0.027-0.004
		c-0.007-0.002-0.016-0.003-0.024-0.004c-0.009-0.002-0.017-0.004-0.024-0.005c-0.01,0-0.018-0.001-0.027-0.003
		c-0.007-0.002-0.016-0.003-0.024-0.004c-0.009-0.002-0.017-0.002-0.024-0.004c-0.01-0.001-0.018-0.002-0.025-0.004
		c-0.009-0.002-0.018-0.003-0.026-0.003c-0.007-0.001-0.017-0.003-0.024-0.005c-0.01-0.001-0.018-0.002-0.025-0.002
		c-0.009-0.002-0.018-0.004-0.026-0.005c-0.007-0.001-0.017-0.003-0.024-0.003c-0.01-0.002-0.017-0.003-0.025-0.004
		c-0.009-0.002-0.018-0.002-0.026-0.004c-0.007-0.001-0.017-0.002-0.024-0.004c-0.01,0-0.017-0.002-0.025-0.003
		s-0.018-0.001-0.026-0.003c-0.007-0.002-0.017-0.003-0.024-0.003c-0.01-0.001-0.017-0.003-0.025-0.005
		c-0.009,0-0.018-0.001-0.026-0.002c-0.007-0.002-0.017-0.002-0.024-0.004c-0.01-0.001-0.017-0.001-0.025-0.002
		c-0.009-0.002-0.018-0.004-0.026-0.004c-0.007-0.001-0.017-0.002-0.024-0.002c-0.01-0.002-0.018-0.004-0.025-0.005
		c-0.009,0-0.018-0.001-0.026-0.003c-0.009,0-0.017-0.002-0.024-0.003c-0.01,0-0.018-0.001-0.025-0.003
		c-0.009,0-0.018-0.002-0.026-0.003c-0.009,0-0.017-0.001-0.024-0.003c-0.01,0-0.018-0.002-0.027-0.003
		c-0.007,0-0.016-0.001-0.024-0.003c-0.009,0-0.018-0.002-0.024-0.002c-0.01-0.001-0.018-0.002-0.027-0.002
		c-0.008-0.002-0.016-0.002-0.024-0.004c-0.009-0.001-0.018-0.001-0.026-0.002c-0.008-0.002-0.016-0.002-0.025-0.004
		c-0.008,0-0.018-0.001-0.024-0.001c-0.009-0.001-0.018-0.003-0.026-0.003c-0.009-0.002-0.016-0.002-0.025-0.003
		c-0.008,0-0.018-0.001-0.025-0.003c-0.008,0-0.017-0.002-0.025-0.002c-0.009-0.001-0.018-0.001-0.025-0.002
		c-0.008,0-0.018-0.002-0.025-0.002c-0.01-0.002-0.017-0.002-0.025-0.003s-0.018-0.001-0.026-0.003
		c-0.007,0-0.017-0.002-0.024-0.002c-0.01-0.001-0.018-0.001-0.025-0.001c-0.009-0.001-0.018-0.003-0.026-0.003
		s-0.017-0.002-0.024-0.002c-0.01-0.001-0.018-0.001-0.027-0.002c-0.007,0-0.016-0.002-0.024-0.002
		c-0.009-0.002-0.018-0.002-0.026-0.003c-0.008,0-0.016,0-0.025-0.001c-0.008,0-0.018-0.002-0.024-0.002
		c-0.009-0.002-0.018-0.002-0.026-0.003c-0.009,0-0.016,0-0.025-0.001c-0.008,0-0.018-0.002-0.025-0.002
		c-0.01,0-0.017-0.002-0.025-0.002c-0.009-0.001-0.018-0.001-0.026-0.001c-0.007-0.001-0.017-0.001-0.024-0.001
		c-0.01-0.002-0.018-0.002-0.027-0.004c-0.007,0-0.016,0-0.024-0.001c-0.009,0-0.018,0-0.024-0.001c-0.01,0-0.018,0-0.027-0.002
		c-0.008,0-0.018-0.002-0.024-0.002c-0.009,0-0.018-0.001-0.026-0.001s-0.016,0-0.025-0.001c-0.008,0-0.018,0-0.025-0.002
		c-0.01,0-0.017,0-0.025-0.002c-0.009,0-0.018,0-0.026-0.001c-0.007,0-0.017,0-0.024,0c-0.01-0.001-0.018-0.001-0.027-0.001
		c-0.007,0-0.016-0.002-0.024-0.002s-0.018-0.002-0.026-0.002c-0.008,0-0.016,0-0.025-0.001c-0.008,0-0.018,0-0.024,0
		c-0.009-0.001-0.018-0.001-0.026-0.001s-0.018,0-0.025-0.002c-0.008,0-0.018,0-0.025,0c-0.01,0-0.018-0.002-0.025-0.002
		c-0.009,0-0.018,0-0.026-0.001c-0.009,0-0.017,0-0.024,0c-0.01,0-0.018,0-0.027-0.001c-0.008,0-0.016,0-0.024,0
		s-0.018,0-0.026-0.002c-0.009,0-0.016,0-0.025,0c-0.008,0-0.018,0-0.025,0c-0.01-0.002-0.017-0.002-0.025-0.002s-0.018,0-0.026,0
		c-0.007,0-0.017-0.001-0.024-0.001c-0.01,0-0.018,0-0.027,0c-0.007,0-0.016,0-0.024,0s-0.018-0.001-0.026-0.001
		c-0.008,0-0.016,0-0.025,0c-0.008,0-0.018,0-0.025,0s-0.017,0-0.025,0s-0.018,0-0.026,0c-0.007,0-0.017-0.002-0.024-0.002
		c-0.01,0-0.018,0-0.025,0c-0.009,0-0.018,0-0.026,0s-0.018,0-0.024,0c-0.01,0-0.018,0-0.027,0c-0.008,0-0.018,0-0.024,0"/>
</g>
<g transform="matrix(1 0 0 1 132.242 146.532)">
	<path fill="none" stroke="#FFFFFF" stroke-linecap="round" stroke-linejoin="round" stroke-miterlimit="10.0375" d="
		M223.216,25.117c-0.01,0.015-0.018,0.029-0.027,0.044c-0.008,0.015-0.018,0.029-0.025,0.044c-0.011,0.015-0.02,0.029-0.028,0.043
		s-0.018,0.029-0.026,0.043c-0.01,0.016-0.02,0.029-0.027,0.045c-0.01,0.013-0.02,0.027-0.028,0.042s-0.019,0.029-0.028,0.042
		c-0.008,0.016-0.019,0.029-0.027,0.045c-0.009,0.013-0.02,0.027-0.027,0.042c-0.011,0.015-0.02,0.028-0.029,0.042
		c-0.01,0.016-0.02,0.028-0.028,0.043c-0.011,0.015-0.019,0.027-0.029,0.043c-0.009,0.014-0.019,0.027-0.029,0.042
		c-0.009,0.013-0.019,0.028-0.028,0.042s-0.02,0.028-0.03,0.041c-0.009,0.016-0.019,0.028-0.029,0.043
		c-0.009,0.014-0.019,0.027-0.029,0.041c-0.011,0.015-0.021,0.027-0.029,0.043c-0.011,0.013-0.021,0.027-0.03,0.041
		c-0.011,0.013-0.021,0.027-0.031,0.041c-0.009,0.014-0.02,0.027-0.029,0.041s-0.021,0.027-0.031,0.041
		c-0.01,0.014-0.02,0.027-0.03,0.041s-0.021,0.027-0.032,0.041c-0.01,0.013-0.021,0.027-0.031,0.041
		c-0.01,0.013-0.02,0.025-0.03,0.039c-0.011,0.015-0.022,0.027-0.032,0.041s-0.021,0.026-0.031,0.039
		c-0.012,0.016-0.021,0.028-0.031,0.041c-0.012,0.014-0.022,0.027-0.033,0.04c-0.012,0.013-0.021,0.026-0.031,0.04
		c-0.012,0.013-0.022,0.025-0.033,0.039c-0.012,0.014-0.021,0.026-0.033,0.039c-0.01,0.014-0.021,0.027-0.032,0.04
		c-0.012,0.013-0.022,0.026-0.034,0.04c-0.01,0.013-0.021,0.024-0.031,0.037c-0.012,0.014-0.022,0.027-0.034,0.04
		s-0.022,0.024-0.034,0.038s-0.021,0.026-0.033,0.039c-0.012,0.012-0.021,0.025-0.033,0.039c-0.012,0.012-0.023,0.024-0.034,0.037
		c-0.012,0.014-0.023,0.025-0.035,0.039c-0.012,0.013-0.022,0.024-0.034,0.037c-0.012,0.012-0.023,0.025-0.035,0.039
		c-0.012,0.012-0.023,0.024-0.035,0.036c-0.01,0.013-0.021,0.024-0.033,0.038c-0.012,0.012-0.023,0.025-0.035,0.037
		c-0.012,0.013-0.023,0.024-0.035,0.037c-0.012,0.012-0.025,0.023-0.037,0.037c-0.012,0.012-0.023,0.025-0.035,0.037
		s-0.023,0.024-0.035,0.036s-0.024,0.024-0.036,0.036s-0.023,0.025-0.035,0.037c-0.013,0.012-0.024,0.023-0.036,0.035
		c-0.012,0.014-0.025,0.025-0.037,0.037s-0.025,0.023-0.037,0.036c-0.012,0.012-0.024,0.023-0.036,0.035
		c-0.013,0.012-0.024,0.023-0.036,0.035c-0.014,0.012-0.025,0.023-0.039,0.035c-0.012,0.012-0.024,0.023-0.036,0.035
		c-0.013,0.012-0.024,0.023-0.038,0.035c-0.012,0.012-0.025,0.023-0.037,0.035c-0.013,0.012-0.024,0.023-0.037,0.035
		c-0.014,0.012-0.025,0.022-0.039,0.034c-0.012,0.012-0.024,0.023-0.037,0.035c-0.012,0.01-0.025,0.021-0.039,0.033
		c-0.012,0.012-0.024,0.021-0.037,0.033c-0.014,0.012-0.025,0.023-0.039,0.034c-0.013,0.012-0.025,0.023-0.039,0.034
		c-0.012,0.012-0.025,0.021-0.038,0.033s-0.026,0.021-0.04,0.033c-0.013,0.011-0.024,0.022-0.037,0.033
		c-0.014,0.012-0.027,0.021-0.04,0.033c-0.013,0.01-0.026,0.021-0.04,0.032c-0.013,0.012-0.025,0.022-0.039,0.032
		c-0.014,0.012-0.026,0.021-0.039,0.033c-0.014,0.011-0.027,0.021-0.04,0.033c-0.013,0.01-0.026,0.02-0.041,0.03
		c-0.013,0.012-0.026,0.022-0.04,0.032c-0.013,0.01-0.025,0.021-0.039,0.032c-0.015,0.011-0.027,0.021-0.041,0.03
		c-0.014,0.011-0.026,0.022-0.041,0.033c-0.014,0.01-0.026,0.02-0.039,0.03c-0.016,0.011-0.028,0.021-0.041,0.03
		c-0.016,0.011-0.028,0.021-0.041,0.031c-0.016,0.01-0.028,0.021-0.041,0.031c-0.016,0.01-0.028,0.02-0.041,0.03
		c-0.016,0.009-0.028,0.019-0.043,0.029c-0.014,0.011-0.027,0.021-0.041,0.03s-0.027,0.02-0.041,0.029
		c-0.015,0.011-0.027,0.02-0.043,0.029c-0.013,0.011-0.027,0.021-0.042,0.029c-0.013,0.011-0.028,0.021-0.041,0.029
		c-0.015,0.011-0.028,0.021-0.042,0.029c-0.016,0.011-0.028,0.02-0.043,0.029s-0.027,0.02-0.043,0.028
		c-0.014,0.011-0.027,0.019-0.042,0.029c-0.015,0.009-0.028,0.019-0.042,0.028c-0.016,0.01-0.029,0.019-0.043,0.027
		c-0.015,0.01-0.029,0.02-0.044,0.027c-0.015,0.011-0.028,0.02-0.042,0.028c-0.016,0.011-0.029,0.019-0.045,0.028
		c-0.013,0.008-0.027,0.018-0.042,0.027c-0.015,0.009-0.029,0.018-0.044,0.026s-0.029,0.018-0.044,0.028
		c-0.015,0.008-0.028,0.018-0.042,0.025c-0.016,0.01-0.029,0.018-0.045,0.027c-0.014,0.008-0.029,0.018-0.043,0.025
		c-0.016,0.01-0.029,0.018-0.045,0.027c-0.014,0.008-0.03,0.018-0.045,0.024c-0.015,0.009-0.029,0.018-0.044,0.026
		s-0.029,0.018-0.044,0.025s-0.029,0.018-0.045,0.025s-0.029,0.017-0.045,0.025c-0.014,0.008-0.029,0.016-0.045,0.025
		c-0.015,0.007-0.029,0.016-0.044,0.024c-0.015,0.007-0.03,0.017-0.046,0.023c-0.014,0.009-0.029,0.017-0.045,0.024
		c-0.015,0.008-0.029,0.017-0.045,0.023c-0.016,0.01-0.029,0.017-0.045,0.025c-0.016,0.008-0.03,0.016-0.045,0.023
		c-0.016,0.008-0.031,0.016-0.047,0.023c-0.015,0.008-0.029,0.016-0.045,0.023s-0.029,0.015-0.046,0.023
		c-0.015,0.008-0.03,0.015-0.046,0.021c-0.016,0.008-0.03,0.017-0.047,0.023c-0.014,0.008-0.029,0.016-0.045,0.022
		c-0.015,0.007-0.031,0.015-0.045,0.022c-0.017,0.007-0.031,0.014-0.047,0.021c-0.017,0.008-0.031,0.015-0.047,0.021
		c-0.016,0.008-0.031,0.016-0.046,0.022c-0.017,0.007-0.032,0.015-0.047,0.021c-0.017,0.008-0.03,0.015-0.047,0.021
		c-0.017,0.008-0.03,0.014-0.047,0.021c-0.015,0.007-0.03,0.014-0.047,0.02c-0.015,0.008-0.03,0.016-0.047,0.021
		c-0.017,0.007-0.03,0.014-0.047,0.02c-0.017,0.008-0.03,0.014-0.047,0.021c-0.017,0.007-0.032,0.013-0.047,0.02
		c-0.017,0.006-0.032,0.014-0.048,0.02c-0.016,0.008-0.031,0.014-0.047,0.02c-0.017,0.007-0.031,0.013-0.047,0.02
		c-0.017,0.006-0.033,0.012-0.049,0.02c-0.016,0.006-0.031,0.012-0.047,0.018c-0.016,0.008-0.032,0.014-0.049,0.02
		c-0.016,0.006-0.031,0.013-0.047,0.019s-0.031,0.012-0.048,0.018s-0.032,0.012-0.048,0.018c-0.017,0.006-0.033,0.012-0.049,0.018
		s-0.032,0.012-0.049,0.018c-0.014,0.006-0.03,0.012-0.047,0.018c-0.016,0.006-0.031,0.012-0.048,0.018s-0.032,0.012-0.048,0.017
		c-0.017,0.006-0.033,0.012-0.049,0.018s-0.033,0.01-0.05,0.016s-0.032,0.01-0.048,0.016c-0.017,0.006-0.033,0.011-0.049,0.017
		s-0.032,0.011-0.049,0.017c-0.016,0.004-0.031,0.01-0.049,0.014c-0.017,0.006-0.033,0.011-0.049,0.017
		c-0.016,0.005-0.032,0.011-0.049,0.015c-0.016,0.006-0.033,0.01-0.049,0.015c-0.017,0.006-0.033,0.011-0.049,0.015
		c-0.016,0.006-0.033,0.01-0.05,0.015c-0.017,0.006-0.032,0.011-0.048,0.015c-0.018,0.004-0.034,0.009-0.051,0.015
		c-0.016,0.005-0.031,0.009-0.049,0.013c-0.017,0.005-0.033,0.01-0.049,0.014c-0.018,0.004-0.033,0.009-0.05,0.014
		c-0.017,0.004-0.034,0.008-0.05,0.013s-0.033,0.009-0.05,0.013c-0.017,0.005-0.032,0.01-0.05,0.014
		c-0.016,0.004-0.032,0.008-0.05,0.012c-0.017,0.004-0.032,0.009-0.05,0.014c-0.016,0.002-0.032,0.007-0.05,0.012
		c-0.017,0.002-0.032,0.007-0.05,0.012c-0.016,0.002-0.032,0.007-0.05,0.012c-0.017,0.002-0.032,0.007-0.05,0.01
		c-0.016,0.004-0.033,0.008-0.05,0.012c-0.017,0.003-0.034,0.008-0.05,0.01c-0.016,0.005-0.033,0.008-0.05,0.012
		c-0.018,0.004-0.034,0.006-0.05,0.011c-0.018,0.003-0.033,0.006-0.051,0.011c-0.017,0.002-0.034,0.006-0.051,0.008
		c-0.016,0.005-0.033,0.008-0.049,0.011c-0.018,0.003-0.034,0.006-0.052,0.011c-0.017,0.002-0.034,0.006-0.05,0.008
		c-0.018,0.004-0.033,0.006-0.051,0.01c-0.017,0.002-0.034,0.006-0.051,0.008c-0.016,0.004-0.033,0.006-0.049,0.01
		c-0.018,0.002-0.034,0.006-0.052,0.008c-0.017,0.002-0.034,0.005-0.05,0.008c-0.018,0.003-0.035,0.006-0.051,0.008
		c-0.018,0.002-0.034,0.006-0.052,0.008c-0.017,0.002-0.034,0.005-0.05,0.008c-0.018,0.002-0.033,0.004-0.051,0.008
		c-0.017,0.001-0.034,0.004-0.051,0.006c-0.018,0.002-0.035,0.006-0.051,0.007c-0.018,0.003-0.033,0.005-0.051,0.006
		c-0.017,0.003-0.034,0.005-0.051,0.007c-0.018,0.002-0.035,0.005-0.051,0.006c-0.018,0.002-0.033,0.005-0.051,0.006
		c-0.018,0.002-0.034,0.004-0.052,0.006c-0.017,0.002-0.034,0.004-0.05,0.005c-0.018,0.003-0.035,0.005-0.051,0.006
		c-0.018,0.001-0.034,0.003-0.052,0.005c-0.018,0.001-0.034,0.002-0.052,0.004s-0.033,0.003-0.051,0.004
		c-0.016,0.002-0.033,0.004-0.051,0.005c-0.017,0.001-0.034,0.003-0.051,0.005c-0.018,0.001-0.035,0.002-0.051,0.004
		c-0.018,0-0.035,0.002-0.051,0.003c-0.018,0.001-0.034,0.001-0.052,0.003s-0.034,0.003-0.052,0.003
		c-0.018,0.001-0.033,0.003-0.051,0.003c-0.018,0.002-0.033,0.002-0.051,0.003c-0.017,0.001-0.034,0.001-0.052,0.003
		c-0.017,0-0.034,0.002-0.052,0.002c-0.016,0-0.033,0.001-0.051,0.001c-0.016,0.001-0.033,0.001-0.051,0.001
		c-0.017,0.002-0.034,0.002-0.052,0.002c-0.017,0.002-0.034,0.002-0.05,0.002c-0.018,0-0.035,0.001-0.051,0.001
		c-0.018,0-0.035,0-0.052,0c-0.018,0-0.035,0.001-0.052,0.001c-0.018,0-0.035,0-0.051,0c-0.018,0-0.035,0-0.051,0
		c-0.018,0-0.035,0-0.052,0c-0.018,0-0.035,0-0.052-0.001c-0.018,0-0.035,0-0.051,0c-0.018,0-0.033,0-0.051-0.001
		c-0.018,0-0.034,0-0.052,0c-0.018-0.002-0.034-0.002-0.052-0.002c-0.018-0.002-0.033-0.002-0.051-0.002
		c-0.018-0.001-0.033-0.001-0.051-0.002c-0.018,0-0.034-0.002-0.052-0.002c-0.017-0.002-0.034-0.002-0.052-0.003
		c-0.016,0-0.033-0.001-0.051-0.001c-0.016-0.002-0.033-0.004-0.051-0.004c-0.017-0.001-0.034-0.002-0.052-0.002
		c-0.017-0.002-0.034-0.004-0.05-0.004c-0.018-0.001-0.035-0.002-0.051-0.004c-0.018-0.002-0.035-0.002-0.052-0.003
		c-0.018-0.001-0.034-0.003-0.052-0.005c-0.018-0.001-0.033-0.002-0.051-0.004s-0.033-0.003-0.051-0.004
		c-0.017-0.002-0.034-0.004-0.052-0.005c-0.017-0.001-0.034-0.003-0.05-0.005c-0.018-0.001-0.035-0.004-0.051-0.006
		c-0.018-0.001-0.034-0.002-0.052-0.004c-0.018-0.003-0.034-0.004-0.052-0.006c-0.016-0.002-0.033-0.004-0.049-0.006
		c-0.018-0.002-0.035-0.004-0.052-0.006c-0.018-0.002-0.034-0.004-0.052-0.006c-0.016-0.003-0.033-0.004-0.051-0.008
		c-0.016-0.001-0.033-0.004-0.05-0.006c-0.018-0.002-0.034-0.004-0.052-0.007c-0.016-0.003-0.033-0.005-0.049-0.007
		c-0.018-0.004-0.035-0.005-0.052-0.008c-0.018-0.003-0.034-0.004-0.052-0.008c-0.016-0.002-0.033-0.006-0.049-0.007
		c-0.018-0.003-0.034-0.006-0.052-0.009c-0.017-0.003-0.034-0.006-0.05-0.009c-0.018-0.003-0.033-0.005-0.051-0.007
		c-0.017-0.004-0.034-0.006-0.051-0.01c-0.018-0.002-0.033-0.006-0.051-0.01c-0.016-0.003-0.033-0.006-0.05-0.009
		s-0.034-0.006-0.05-0.009c-0.018-0.003-0.033-0.008-0.051-0.01c-0.017-0.004-0.034-0.006-0.051-0.011
		c-0.016-0.003-0.033-0.006-0.049-0.009c-0.018-0.004-0.034-0.008-0.052-0.012c-0.017-0.003-0.032-0.006-0.05-0.01
		c-0.016-0.004-0.033-0.008-0.05-0.011c-0.017-0.005-0.034-0.007-0.05-0.012c-0.016-0.003-0.033-0.007-0.05-0.011
		c-0.018-0.004-0.034-0.008-0.05-0.012c-0.018-0.004-0.033-0.007-0.05-0.012c-0.018-0.004-0.034-0.008-0.05-0.012
		c-0.018-0.004-0.033-0.008-0.05-0.013c-0.018-0.003-0.034-0.007-0.05-0.012s-0.033-0.009-0.05-0.013
		c-0.017-0.005-0.034-0.008-0.05-0.012c-0.016-0.005-0.032-0.01-0.05-0.014c-0.017-0.004-0.032-0.009-0.048-0.014
		c-0.018-0.004-0.034-0.008-0.051-0.014c-0.016-0.005-0.033-0.01-0.049-0.014c-0.017-0.004-0.033-0.009-0.051-0.014
		c-0.016-0.006-0.031-0.01-0.048-0.014c-0.017-0.005-0.034-0.011-0.05-0.016c-0.016-0.004-0.032-0.01-0.049-0.014
		c-0.016-0.005-0.033-0.011-0.049-0.016c-0.017-0.004-0.033-0.01-0.049-0.014c-0.016-0.006-0.032-0.011-0.049-0.017
		c-0.018-0.005-0.033-0.011-0.049-0.015c-0.017-0.006-0.033-0.01-0.049-0.016s-0.032-0.011-0.049-0.017
		c-0.016-0.006-0.031-0.011-0.048-0.017c-0.018-0.006-0.034-0.01-0.05-0.016s-0.032-0.012-0.049-0.018
		c-0.016-0.004-0.031-0.01-0.048-0.016s-0.032-0.012-0.048-0.018c-0.017-0.006-0.033-0.011-0.049-0.017s-0.032-0.012-0.047-0.018
		c-0.016-0.006-0.032-0.012-0.049-0.018c-0.016-0.006-0.031-0.013-0.048-0.019s-0.032-0.012-0.048-0.018
		c-0.017-0.006-0.033-0.012-0.047-0.02c-0.017-0.006-0.033-0.012-0.049-0.018s-0.032-0.014-0.047-0.02
		c-0.016-0.006-0.032-0.013-0.049-0.019c-0.016-0.006-0.031-0.013-0.047-0.019c-0.016-0.008-0.031-0.014-0.048-0.02
		c-0.017-0.008-0.03-0.014-0.047-0.021c-0.017-0.006-0.032-0.013-0.047-0.019c-0.017-0.008-0.032-0.014-0.047-0.021
		c-0.017-0.007-0.032-0.013-0.048-0.02c-0.016-0.008-0.031-0.014-0.047-0.021c-0.016-0.007-0.031-0.013-0.047-0.02
		c-0.016-0.008-0.031-0.016-0.046-0.021c-0.017-0.007-0.032-0.014-0.047-0.021c-0.017-0.008-0.032-0.014-0.047-0.021
		c-0.017-0.007-0.03-0.015-0.047-0.022c-0.015-0.007-0.03-0.014-0.046-0.021s-0.031-0.015-0.047-0.021
		c-0.016-0.008-0.03-0.016-0.047-0.022c-0.014-0.007-0.03-0.015-0.045-0.022c-0.015-0.007-0.031-0.016-0.045-0.023
		c-0.017-0.007-0.031-0.014-0.047-0.021s-0.031-0.016-0.046-0.023s-0.03-0.016-0.046-0.023c-0.014-0.008-0.03-0.015-0.045-0.023
		c-0.016-0.008-0.031-0.016-0.045-0.023c-0.017-0.008-0.031-0.016-0.046-0.023c-0.015-0.009-0.03-0.016-0.046-0.025
		c-0.014-0.007-0.03-0.016-0.045-0.023s-0.029-0.016-0.045-0.024c-0.016-0.007-0.029-0.017-0.045-0.024
		c-0.014-0.008-0.03-0.017-0.045-0.025c-0.015-0.008-0.029-0.016-0.044-0.025c-0.015-0.008-0.03-0.016-0.046-0.024
		c-0.014-0.009-0.029-0.018-0.043-0.024c-0.016-0.01-0.029-0.018-0.045-0.027c-0.014-0.008-0.029-0.018-0.043-0.025
		c-0.016-0.01-0.031-0.017-0.046-0.025s-0.029-0.018-0.044-0.026s-0.029-0.018-0.043-0.026s-0.029-0.02-0.043-0.027
		c-0.016-0.01-0.029-0.018-0.045-0.027c-0.014-0.008-0.029-0.018-0.043-0.025c-0.016-0.011-0.029-0.02-0.043-0.028
		c-0.015-0.009-0.029-0.018-0.044-0.028c-0.015-0.008-0.029-0.018-0.042-0.027c-0.016-0.009-0.029-0.018-0.045-0.027
		c-0.013-0.01-0.027-0.018-0.042-0.028c-0.015-0.009-0.028-0.019-0.042-0.028c-0.016-0.008-0.029-0.019-0.043-0.027
		c-0.015-0.01-0.029-0.02-0.043-0.029s-0.027-0.02-0.042-0.029c-0.015-0.009-0.028-0.02-0.042-0.027
		c-0.016-0.011-0.028-0.021-0.043-0.029c-0.014-0.011-0.027-0.021-0.041-0.029c-0.015-0.011-0.027-0.021-0.043-0.031
		c-0.013-0.009-0.027-0.02-0.041-0.029s-0.027-0.021-0.042-0.029c-0.013-0.01-0.028-0.021-0.041-0.031
		c-0.013-0.01-0.028-0.02-0.041-0.03s-0.028-0.021-0.041-0.029c-0.015-0.011-0.028-0.021-0.041-0.03
		c-0.015-0.011-0.028-0.021-0.041-0.033c-0.013-0.01-0.028-0.02-0.041-0.03s-0.026-0.021-0.041-0.03
		c-0.013-0.011-0.026-0.021-0.04-0.033c-0.013-0.01-0.027-0.02-0.041-0.03c-0.013-0.011-0.025-0.022-0.039-0.032
		s-0.026-0.021-0.039-0.032c-0.014-0.011-0.028-0.021-0.041-0.032c-0.014-0.01-0.027-0.021-0.04-0.032
		c-0.013-0.011-0.026-0.021-0.04-0.032c-0.013-0.01-0.025-0.021-0.039-0.032c-0.014-0.012-0.026-0.022-0.038-0.034
		c-0.013-0.01-0.026-0.021-0.04-0.031c-0.013-0.012-0.025-0.022-0.039-0.034s-0.025-0.022-0.038-0.034
		c-0.013-0.01-0.026-0.021-0.04-0.033c-0.012-0.01-0.024-0.021-0.037-0.033c-0.014-0.011-0.025-0.022-0.039-0.034
		c-0.013-0.012-0.025-0.022-0.037-0.034c-0.014-0.012-0.027-0.023-0.039-0.035c-0.013-0.01-0.024-0.021-0.037-0.033
		c-0.014-0.012-0.025-0.023-0.039-0.035c-0.012-0.012-0.024-0.023-0.037-0.033c-0.012-0.012-0.025-0.023-0.037-0.035
		c-0.014-0.012-0.025-0.023-0.037-0.035c-0.013-0.012-0.024-0.023-0.037-0.035c-0.012-0.012-0.025-0.025-0.037-0.037
		s-0.025-0.023-0.037-0.035c-0.013-0.012-0.024-0.023-0.036-0.035c-0.012-0.014-0.024-0.025-0.036-0.037s-0.025-0.023-0.037-0.036"
		/>
</g>
<g transform="matrix(1 0 0 1 132.242 146.532)">
	
		<path fill="none" stroke="#FFFFFF" stroke-linecap="round" stroke-linejoin="round" stroke-miterlimit="10.0375" stroke-dasharray="4 4" d="
		M213.543,19.711v122.465"/>
</g>
<g transform="matrix(1 0 0 1 132.242 146.532)">
	<path fill="#FFFFFF" d="M216.568,142.176h-6.051l3.026,13.59L216.568,142.176z"/>
</g>
<ellipse fill="#00FFFF" cx="345.785" cy="278.85" rx="4.5" ry="4.801"/>
<ellipse fill="#00FFFF" cx="345.785" cy="52.741" rx="4.5" ry="4.801"/>
<g transform="matrix(1 0 0 1 132.242 146.532)">
	<circle fill="#66CC00" cx="252.075" cy="-36.561" r="4.065"/>
</g>
<g transform="matrix(1 0 0 1 132.242 146.532)">
	<path fill="none" stroke="#FFFFFF" stroke-linecap="round" stroke-linejoin="round" stroke-miterlimit="10.0375" d="
		M-224.982-99.235V23.23"/>
</g>
<g transform="matrix(1 0 0 1 132.242 146.532)">
	<path fill="#FFFFFF" d="M-224.982-112.825l-3.026,13.59h6.052L-224.982-112.825z"/>
</g>
<g transform="matrix(1 0 0 1 132.242 146.532)">
	<path fill="none" stroke="#FFFFFF" stroke-linecap="round" stroke-linejoin="round" stroke-miterlimit="10.0375" d="
		M-209.585,23.23h-30"/>
</g>
<g transform="matrix(1 0 0 1 132.242 146.532)">
	
		<path fill="none" stroke="#FFFFFF" stroke-linecap="round" stroke-linejoin="round" stroke-miterlimit="10.0375" stroke-dasharray="4 4" d="
		M-224.982,23.676V146.14"/>
</g>
<g transform="matrix(1 0 0 1 132.242 146.532)">
	<path fill="#FFFFFF" d="M-221.957,146.14h-6.052l3.026,13.59L-221.957,146.14z"/>
</g>
<ellipse fill="#00FFFF" cx="-92.74" cy="282.816" rx="4.5" ry="4.8"/>
<ellipse fill="#00FFFF" cx="-92.74" cy="56.707" rx="4.5" ry="4.8"/>
<text transform="matrix(1 0 0 1 -141.1767 -4.9683)" fill="#FFFFFF" font-family="'Lato-Regular'" font-size="24">Transistor</text>
<text transform="matrix(1 0 0 1 313.8233 -5.9683)" fill="#FFFFFF" font-family="'Lato-Regular'" font-size="24">Qubit</text>
<text transform="matrix(1 0 0 1 -75.5717 295.1157)" fill="#FFFFFF" font-family="'Lato-Regular'" font-size="24">0</text>
<text transform="matrix(1 0 0 1 -75.5717 58.1279)" fill="#FFFFFF" font-family="'Lato-Regular'" font-size="24">1</text>
<text transform="matrix(1 0 0 1 359.4288 300.1157)" fill="#FFFFFF" font-family="'Lato-Regular'" font-size="24">0</text>
<text transform="matrix(1 0 0 1 359.4288 47.1279)" fill="#FFFFFF" font-family="'Lato-Regular'" font-size="24">1</text>
</svg>
