<?xml version="1.0" encoding="utf-8"?>
<!-- Generator: Adobe Illustrator 12.0.0, SVG Export Plug-In . SVG Version: 6.00 Build 51448)  -->
<!DOCTYPE svg PUBLIC "-//W3C//DTD SVG 1.1//EN" "http://www.w3.org/Graphics/SVG/1.1/DTD/svg11.dtd" [
	<!ENTITY ns_svg "http://www.w3.org/2000/svg">
	<!ENTITY ns_xlink "http://www.w3.org/1999/xlink">
]>
<svg  version="1.1" id="Layer_1" xmlns="&ns_svg;" xmlns:xlink="&ns_xlink;" width="682.795" height="404.958"
	 viewBox="-141.177 -98.696 682.795 404.958" overflow="visible" enable-background="new -141.177 -98.696 682.795 404.958"
	 xml:space="preserve">
<g transform="matrix(1 0 0 1 132.242 146.532)">
	<path fill="none" stroke="#FFFFFF" stroke-linecap="round" stroke-linejoin="round" stroke-miterlimit="10.0375" d="
		M326.599,19.265c0-62.439-50.619-113.056-113.057-113.056S100.486-43.175,100.486,19.265c0,62.438,50.618,113.055,113.057,113.055
		C275.98,132.32,326.599,81.704,326.599,19.265z"/>
</g>
<g transform="matrix(1 0 0 1 132.242 146.532)">
	
		<path fill="none" stroke="#FFFFFF" stroke-linecap="round" stroke-linejoin="round" stroke-miterlimit="10.0375" stroke-dasharray="4.0343 4.0343" d="
		M326.599,19.265c0-24.977-50.619-45.223-113.057-45.223S100.486-5.711,100.486,19.265c0,24.975,50.618,45.223,113.057,45.223
		C275.98,64.488,326.599,44.24,326.599,19.265z"/>
</g>
<g transform="matrix(1 0 0 1 132.242 146.532)">
	<path fill="none" stroke="#FFFFFF" stroke-linecap="round" stroke-linejoin="round" stroke-miterlimit="10.0375" d="M213.542-103.2
		V19.265"/>
</g>
<g transform="matrix(1 0 0 1 132.242 146.532)">
	<path fill="#FFFFFF" d="M213.542-116.79l-3.025,13.59h6.051L213.542-116.79z"/>
</g>
<g transform="matrix(1 0 0 1 132.242 146.532)">
	<path fill="none" stroke="#FFFFFF" stroke-linecap="round" stroke-linejoin="round" stroke-miterlimit="10.0375" d="
		M332.242,19.265H213.542"/>
</g>
<g transform="matrix(1 0 0 1 132.242 146.532)">
	<path fill="#FFFFFF" d="M345.414,19.265l-13.172-3.027v6.053L345.414,19.265z"/>
</g>
<g transform="matrix(1 0 0 1 132.242 146.532)">
	<path fill="none" stroke="#FFFFFF" stroke-linecap="round" stroke-linejoin="round" stroke-miterlimit="10.0375" d="
		M165.659,67.652l47.884-48.387"/>
</g>
<g transform="matrix(1 0 0 1 132.242 146.532)">
	<path fill="#FFFFFF" d="M154.415,79.013l14.256-8.318l-6.027-6.089L154.415,79.013z"/>
</g>
<g transform="matrix(1 0 0 1 132.242 146.532)">
	<path fill="none" stroke="#FFFFFF" stroke-linecap="round" stroke-linejoin="round" stroke-miterlimit="10.0375" d="
		M213.542,19.265l38.533-55.826"/>
</g>
<g transform="matrix(1 0 0 1 132.242 146.532)">
	
		<path fill="none" stroke="#FFFFFF" stroke-linecap="round" stroke-linejoin="round" stroke-miterlimit="10.0375" stroke-dasharray="0 2.0186" d="
		M252.076-36.56v79.138l-38.533-23.313"/>
</g>
<g transform="matrix(1 0 0 1 132.242 146.532)">
	<path fill="none" stroke="#FFFFFF" stroke-linecap="round" stroke-linejoin="round" stroke-miterlimit="10.0375" d="M223.175,5.308
		c-0.006-0.006-0.014-0.01-0.02-0.016c-0.01-0.005-0.016-0.009-0.021-0.014c-0.008-0.006-0.014-0.012-0.021-0.016
		c-0.008-0.006-0.014-0.01-0.021-0.014c-0.006-0.006-0.014-0.012-0.02-0.016c-0.008-0.004-0.016-0.01-0.023-0.016
		c-0.006-0.004-0.012-0.008-0.02-0.015c-0.008-0.004-0.016-0.009-0.021-0.014c-0.006-0.007-0.014-0.011-0.021-0.015
		s-0.016-0.011-0.021-0.016c-0.008-0.004-0.014-0.008-0.021-0.014c-0.006-0.006-0.014-0.01-0.02-0.014
		c-0.008-0.004-0.014-0.011-0.021-0.016s-0.016-0.009-0.021-0.016c-0.008-0.004-0.014-0.008-0.021-0.014
		c-0.006-0.004-0.014-0.01-0.021-0.014c-0.006-0.005-0.014-0.01-0.021-0.014c-0.008-0.006-0.014-0.01-0.02-0.016
		c-0.008-0.005-0.016-0.009-0.023-0.013c-0.006-0.006-0.014-0.011-0.021-0.017c-0.006-0.004-0.014-0.008-0.02-0.012
		c-0.008-0.007-0.016-0.012-0.021-0.016s-0.016-0.01-0.023-0.014c-0.006-0.004-0.014-0.01-0.02-0.014
		c-0.008-0.006-0.016-0.011-0.021-0.015c-0.008-0.004-0.016-0.009-0.021-0.015c-0.008-0.006-0.016-0.01-0.021-0.014
		c-0.008-0.005-0.016-0.01-0.021-0.014c-0.008-0.004-0.016-0.01-0.021-0.014c-0.006-0.006-0.014-0.01-0.021-0.014
		c-0.008-0.006-0.016-0.011-0.021-0.015c-0.008-0.004-0.016-0.009-0.021-0.015c-0.006-0.004-0.016-0.008-0.021-0.012
		c-0.008-0.007-0.014-0.012-0.021-0.016c-0.006-0.004-0.016-0.01-0.021-0.014c-0.008-0.004-0.016-0.008-0.021-0.014
		c-0.006-0.005-0.014-0.009-0.021-0.013c-0.008-0.005-0.014-0.011-0.02-0.015c-0.01-0.004-0.018-0.008-0.023-0.014
		c-0.006-0.004-0.014-0.008-0.021-0.013s-0.014-0.009-0.021-0.013c-0.008-0.006-0.014-0.01-0.02-0.014
		c-0.01-0.004-0.018-0.01-0.023-0.015c-0.006-0.004-0.014-0.008-0.021-0.013c-0.008-0.006-0.014-0.01-0.021-0.014
		s-0.014-0.01-0.02-0.014c-0.01-0.004-0.018-0.009-0.023-0.014c-0.006-0.004-0.014-0.008-0.021-0.014
		c-0.008-0.004-0.014-0.009-0.021-0.013c-0.008-0.005-0.016-0.01-0.023-0.015c-0.006-0.004-0.014-0.008-0.02-0.012
		c-0.008-0.004-0.016-0.008-0.023-0.014c-0.006-0.004-0.014-0.008-0.021-0.013c-0.006-0.005-0.014-0.009-0.021-0.013
		c-0.008-0.006-0.014-0.01-0.02-0.013c-0.008-0.005-0.018-0.01-0.023-0.014s-0.016-0.009-0.021-0.015
		c-0.008-0.004-0.016-0.008-0.023-0.012c-0.006-0.004-0.014-0.008-0.02-0.013c-0.008-0.005-0.016-0.009-0.021-0.013
		c-0.008-0.006-0.016-0.008-0.021-0.012c-0.01-0.006-0.018-0.011-0.023-0.015s-0.016-0.009-0.021-0.013
		c-0.008-0.004-0.016-0.008-0.021-0.014c-0.008-0.004-0.016-0.008-0.023-0.012s-0.016-0.008-0.021-0.014
		c-0.008-0.004-0.016-0.006-0.021-0.012c-0.006-0.004-0.016-0.008-0.021-0.013c-0.008-0.004-0.016-0.008-0.023-0.012
		c-0.008-0.005-0.014-0.011-0.021-0.013c-0.008-0.004-0.014-0.01-0.023-0.014c-0.008-0.004-0.014-0.008-0.02-0.012
		c-0.008-0.004-0.016-0.01-0.023-0.012c-0.006-0.004-0.016-0.01-0.021-0.014c-0.008-0.002-0.016-0.008-0.023-0.013
		c-0.006-0.004-0.014-0.007-0.021-0.013c-0.008-0.004-0.016-0.008-0.021-0.012c-0.008-0.004-0.016-0.008-0.021-0.013
		c-0.01-0.003-0.018-0.007-0.023-0.012c-0.008-0.003-0.016-0.007-0.021-0.013c-0.01-0.004-0.018-0.006-0.023-0.012
		c-0.006-0.005-0.014-0.007-0.021-0.012s-0.016-0.007-0.023-0.012c-0.006-0.006-0.014-0.008-0.02-0.012
		c-0.01-0.006-0.018-0.01-0.023-0.013c-0.008-0.005-0.016-0.009-0.021-0.012c-0.01-0.005-0.018-0.009-0.023-0.013
		c-0.008-0.004-0.016-0.006-0.023-0.012c-0.006-0.005-0.016-0.007-0.021-0.012s-0.018-0.007-0.023-0.012
		c-0.006-0.006-0.014-0.008-0.021-0.012s-0.016-0.008-0.023-0.013c-0.006-0.003-0.014-0.007-0.021-0.012
		c-0.008-0.003-0.016-0.007-0.021-0.011c-0.01-0.004-0.016-0.008-0.023-0.012c-0.006-0.005-0.016-0.008-0.023-0.013
		c-0.008-0.002-0.014-0.007-0.02-0.013c-0.012-0.002-0.018-0.006-0.023-0.01c-0.008-0.004-0.016-0.008-0.023-0.012
		s-0.016-0.008-0.021-0.012c-0.01-0.003-0.018-0.008-0.023-0.01c-0.008-0.006-0.018-0.008-0.023-0.012
		c-0.006-0.006-0.014-0.009-0.023-0.013c-0.006-0.004-0.014-0.008-0.021-0.011c-0.008-0.006-0.016-0.008-0.023-0.012
		c-0.006-0.004-0.016-0.008-0.021-0.012c-0.008-0.004-0.018-0.007-0.023-0.012c-0.008-0.002-0.014-0.007-0.023-0.01
		c-0.008-0.004-0.014-0.008-0.021-0.012s-0.016-0.008-0.021-0.01c-0.01-0.006-0.018-0.009-0.023-0.012
		c-0.008-0.005-0.016-0.007-0.023-0.012c-0.008-0.004-0.016-0.008-0.023-0.012s-0.014-0.006-0.023-0.012
		c-0.008-0.002-0.014-0.006-0.021-0.01c-0.008-0.003-0.016-0.008-0.021-0.01c-0.01-0.006-0.018-0.008-0.023-0.012
		c-0.01-0.004-0.018-0.007-0.023-0.012c-0.01-0.003-0.016-0.006-0.021-0.011c-0.012-0.003-0.018-0.007-0.023-0.011
		c-0.008-0.002-0.018-0.008-0.023-0.01c-0.008-0.004-0.018-0.008-0.023-0.011c-0.008-0.005-0.016-0.007-0.021-0.011
		c-0.01-0.004-0.018-0.008-0.023-0.012c-0.008-0.002-0.018-0.006-0.023-0.01c-0.008-0.004-0.018-0.007-0.023-0.011
		c-0.008-0.004-0.018-0.006-0.023-0.011c-0.008-0.004-0.016-0.006-0.021-0.012c-0.008-0.002-0.018-0.006-0.023-0.01
		c-0.008-0.003-0.018-0.006-0.023-0.01c-0.008-0.004-0.018-0.006-0.023-0.01c-0.01-0.004-0.016-0.008-0.021-0.01
		c-0.012-0.004-0.018-0.008-0.023-0.01c-0.01-0.006-0.018-0.009-0.023-0.012c-0.01-0.003-0.018-0.007-0.025-0.011
		c-0.008-0.003-0.014-0.007-0.023-0.011c-0.008-0.002-0.014-0.006-0.021-0.01s-0.016-0.006-0.023-0.01
		c-0.008-0.002-0.016-0.007-0.023-0.01c-0.006-0.004-0.016-0.006-0.023-0.01s-0.016-0.006-0.021-0.01
		c-0.01-0.004-0.018-0.008-0.023-0.011c-0.01-0.003-0.016-0.006-0.025-0.01c-0.008-0.005-0.014-0.007-0.023-0.011
		c-0.006-0.002-0.016-0.006-0.023-0.01c-0.006-0.002-0.016-0.006-0.021-0.009c-0.008-0.005-0.018-0.007-0.023-0.011
		c-0.008-0.002-0.016-0.006-0.023-0.008c-0.008-0.006-0.018-0.008-0.023-0.012c-0.006-0.002-0.018-0.006-0.023-0.008
		c-0.01-0.005-0.018-0.009-0.023-0.011c-0.008-0.004-0.016-0.006-0.023-0.011c-0.008-0.002-0.018-0.006-0.023-0.01
		c-0.008-0.002-0.016-0.006-0.023-0.008c-0.01-0.004-0.016-0.007-0.023-0.01s-0.016-0.006-0.023-0.01s-0.016-0.006-0.023-0.01
		c-0.008-0.002-0.016-0.006-0.025-0.008c-0.006-0.004-0.014-0.006-0.021-0.011c-0.008-0.002-0.018-0.007-0.023-0.01
		c-0.008-0.003-0.016-0.006-0.025-0.009c-0.006-0.004-0.014-0.006-0.021-0.01c-0.008-0.002-0.018-0.006-0.023-0.008
		c-0.01-0.004-0.018-0.007-0.023-0.01c-0.008-0.003-0.018-0.006-0.023-0.009c-0.01-0.003-0.018-0.007-0.023-0.009
		c-0.01-0.004-0.018-0.006-0.025-0.01c-0.008-0.002-0.016-0.006-0.021-0.009c-0.01-0.003-0.018-0.006-0.025-0.009
		s-0.016-0.006-0.023-0.01c-0.008-0.002-0.016-0.006-0.023-0.008c-0.008-0.004-0.018-0.006-0.023-0.01
		c-0.01-0.002-0.018-0.006-0.023-0.009c-0.008-0.003-0.018-0.006-0.023-0.009c-0.008-0.003-0.018-0.006-0.023-0.01
		c-0.01-0.002-0.018-0.006-0.025-0.008c-0.008-0.004-0.016-0.004-0.023-0.008c-0.008-0.002-0.016-0.007-0.023-0.009
		c-0.008-0.004-0.016-0.006-0.023-0.01c-0.008-0.002-0.018-0.007-0.023-0.009c-0.01-0.004-0.018-0.004-0.025-0.008
		c-0.006-0.002-0.016-0.006-0.021-0.008c-0.012-0.004-0.018-0.007-0.025-0.01s-0.016-0.004-0.023-0.008
		c-0.01-0.002-0.016-0.006-0.025-0.008c-0.006-0.004-0.016-0.006-0.023-0.008c-0.008-0.004-0.016-0.006-0.023-0.01
		c-0.006-0.003-0.018-0.006-0.023-0.007c-0.008-0.004-0.018-0.006-0.023-0.01c-0.01-0.002-0.018-0.007-0.025-0.007
		c-0.008-0.004-0.016-0.006-0.021-0.01c-0.01-0.002-0.018-0.006-0.025-0.008s-0.016-0.006-0.025-0.008
		c-0.006-0.002-0.016-0.005-0.021-0.008c-0.01-0.003-0.018-0.006-0.025-0.008c-0.006-0.002-0.016-0.006-0.023-0.008
		c-0.01-0.004-0.018-0.006-0.023-0.008c-0.01-0.004-0.016-0.005-0.025-0.009c-0.008-0.002-0.016-0.006-0.023-0.008
		s-0.018-0.005-0.023-0.009c-0.01-0.002-0.018-0.004-0.023-0.008c-0.01-0.002-0.018-0.004-0.025-0.006
		c-0.008-0.004-0.016-0.006-0.023-0.008c-0.01-0.004-0.018-0.006-0.025-0.008c-0.008-0.003-0.016-0.006-0.023-0.008
		s-0.018-0.006-0.023-0.008c-0.008-0.002-0.018-0.006-0.023-0.008c-0.01-0.002-0.018-0.004-0.025-0.008
		c-0.008-0.002-0.016-0.005-0.025-0.008c-0.006-0.001-0.016-0.005-0.023-0.006c-0.008-0.003-0.018-0.006-0.023-0.008
		c-0.008-0.004-0.018-0.006-0.023-0.008c-0.01-0.002-0.018-0.006-0.025-0.008s-0.016-0.004-0.025-0.007
		c-0.006-0.003-0.016-0.005-0.023-0.007c-0.006-0.002-0.018-0.005-0.023-0.008c-0.008-0.002-0.018-0.004-0.023-0.006
		c-0.01-0.004-0.018-0.006-0.025-0.008s-0.016-0.004-0.025-0.008c-0.006-0.002-0.016-0.004-0.023-0.007
		c-0.006-0.002-0.018-0.005-0.023-0.006c-0.008-0.004-0.018-0.005-0.023-0.008c-0.01-0.003-0.018-0.005-0.025-0.009
		c-0.008,0-0.016-0.004-0.025-0.006c-0.008-0.002-0.016-0.004-0.023-0.006s-0.016-0.006-0.023-0.007
		c-0.008-0.003-0.018-0.005-0.025-0.007s-0.016-0.005-0.025-0.006c-0.006-0.004-0.016-0.006-0.023-0.008s-0.018-0.004-0.023-0.006
		c-0.008-0.004-0.018-0.004-0.023-0.008c-0.01-0.002-0.018-0.004-0.025-0.007c-0.008-0.002-0.018-0.004-0.025-0.007
		c-0.008-0.001-0.018-0.003-0.023-0.006c-0.01-0.001-0.018-0.006-0.023-0.006c-0.01-0.004-0.018-0.006-0.025-0.008
		s-0.016-0.004-0.025-0.006c-0.008-0.002-0.016-0.004-0.023-0.006c-0.01-0.004-0.018-0.005-0.023-0.006
		c-0.01-0.004-0.018-0.005-0.025-0.006c-0.01-0.004-0.016-0.005-0.025-0.008c-0.008-0.002-0.016-0.004-0.023-0.006
		c-0.01-0.002-0.018-0.004-0.025-0.006c-0.01-0.002-0.016-0.004-0.023-0.006s-0.018-0.004-0.025-0.006
		c-0.008-0.003-0.016-0.005-0.023-0.007c-0.01-0.002-0.018-0.004-0.025-0.006c-0.01-0.002-0.016-0.004-0.025-0.006
		c-0.008-0.003-0.016-0.005-0.023-0.007s-0.018-0.004-0.025-0.006s-0.016-0.004-0.023-0.006c-0.01-0.002-0.018-0.004-0.025-0.006
		s-0.016-0.003-0.023-0.006c-0.01-0.002-0.018-0.003-0.025-0.006c-0.008-0.002-0.018-0.003-0.023-0.004
		c-0.01-0.004-0.018-0.006-0.025-0.006c-0.008-0.002-0.018-0.006-0.025-0.006c-0.008-0.002-0.018-0.004-0.023-0.006
		c-0.01-0.002-0.018-0.004-0.025-0.006s-0.016-0.005-0.025-0.006c-0.008-0.001-0.016-0.003-0.023-0.006
		c-0.008-0.001-0.018-0.003-0.025-0.005c-0.01-0.002-0.016-0.004-0.023-0.007c-0.01,0-0.018-0.002-0.025-0.006
		c-0.008,0-0.018-0.002-0.025-0.004s-0.018-0.002-0.023-0.006c-0.01-0.002-0.018-0.002-0.025-0.004s-0.018-0.004-0.025-0.006
		c-0.006-0.002-0.018-0.004-0.023-0.005c-0.008-0.001-0.018-0.003-0.025-0.005s-0.016-0.004-0.025-0.006
		c-0.008-0.002-0.016-0.002-0.023-0.004s-0.018-0.004-0.023-0.006c-0.01-0.002-0.02-0.004-0.027-0.004
		c-0.008-0.002-0.016-0.004-0.023-0.006c-0.008,0-0.018-0.003-0.025-0.005c-0.01-0.002-0.016-0.004-0.025-0.006
		c-0.008-0.001-0.018-0.002-0.023-0.004c-0.008-0.002-0.02-0.003-0.025-0.004c-0.008-0.003-0.018-0.005-0.025-0.005
		c-0.008-0.002-0.016-0.004-0.025-0.006c-0.008,0-0.016-0.004-0.023-0.006c-0.01,0-0.018-0.002-0.023-0.004
		c-0.01-0.002-0.02-0.002-0.025-0.004c-0.01-0.002-0.018-0.004-0.025-0.005s-0.018-0.003-0.025-0.005
		c-0.01-0.001-0.016-0.002-0.025-0.004c-0.008-0.002-0.018-0.003-0.023-0.004c-0.008-0.002-0.02-0.004-0.025-0.006
		c-0.008,0-0.018-0.002-0.025-0.004c-0.01,0-0.016-0.002-0.025-0.002c-0.008-0.002-0.018-0.004-0.023-0.006
		c-0.01,0-0.018-0.002-0.025-0.004s-0.018-0.002-0.025-0.005c-0.008-0.002-0.016-0.003-0.023-0.004
		c-0.01-0.002-0.02-0.004-0.025-0.004c-0.01-0.001-0.018-0.002-0.027-0.004c-0.006-0.002-0.016-0.003-0.023-0.004
		c-0.008-0.003-0.018-0.005-0.023-0.005c-0.01,0-0.018-0.002-0.027-0.004c-0.008-0.002-0.016-0.002-0.023-0.004
		c-0.01-0.002-0.018-0.002-0.023-0.004c-0.012,0-0.02-0.002-0.025-0.004c-0.01-0.002-0.02-0.002-0.027-0.002
		c-0.006-0.002-0.016-0.004-0.023-0.006c-0.01-0.001-0.018-0.002-0.025-0.002c-0.008-0.002-0.018-0.004-0.025-0.005
		s-0.018-0.003-0.023-0.003c-0.01-0.002-0.018-0.003-0.025-0.004c-0.01-0.002-0.018-0.002-0.025-0.004s-0.018-0.002-0.025-0.004
		c-0.01,0-0.016-0.002-0.023-0.004c-0.01,0-0.02,0-0.027-0.002c-0.006-0.002-0.018-0.004-0.023-0.004
		c-0.01,0-0.018-0.002-0.025-0.004c-0.008,0-0.018-0.002-0.025-0.002c-0.008-0.003-0.018-0.003-0.023-0.005
		c-0.012-0.001-0.018-0.001-0.025-0.002c-0.01-0.002-0.02-0.004-0.027-0.004c-0.006-0.001-0.016-0.002-0.023-0.002
		c-0.01-0.002-0.018-0.004-0.025-0.005c-0.008,0-0.018-0.001-0.025-0.004c-0.01,0-0.018-0.002-0.023-0.002
		c-0.01,0-0.02-0.002-0.025-0.004c-0.01,0-0.018-0.002-0.025-0.002c-0.01,0-0.018-0.002-0.025-0.004
		c-0.01,0-0.018-0.002-0.027-0.002c-0.006,0-0.016-0.002-0.023-0.004c-0.008,0-0.018-0.002-0.023-0.002
		c-0.01,0-0.018-0.002-0.027-0.002c-0.008-0.002-0.016-0.002-0.023-0.004c-0.01-0.001-0.018-0.001-0.027-0.002
		c-0.008-0.002-0.016-0.002-0.023-0.004c-0.008,0-0.02-0.001-0.025-0.001c-0.008-0.001-0.018-0.003-0.025-0.003
		c-0.01-0.002-0.016-0.002-0.025-0.003c-0.008,0-0.018-0.001-0.023-0.003c-0.01,0-0.018-0.002-0.025-0.002
		c-0.01-0.002-0.02-0.002-0.025-0.002c-0.008,0-0.018-0.002-0.025-0.002c-0.01-0.002-0.018-0.002-0.025-0.004
		c-0.008,0-0.018,0-0.025-0.002c-0.008,0-0.018-0.002-0.023-0.002c-0.01-0.002-0.02-0.002-0.025-0.002
		c-0.01,0-0.018-0.002-0.025-0.002s-0.018-0.002-0.025-0.002c-0.01-0.002-0.018-0.002-0.027-0.003c-0.006,0-0.016-0.002-0.023-0.002
		c-0.008-0.002-0.018-0.002-0.025-0.003c-0.008,0-0.016,0-0.025-0.001c-0.008,0-0.018-0.002-0.023-0.002
		c-0.01-0.002-0.018-0.002-0.027-0.003c-0.008,0-0.016,0-0.023-0.001c-0.008,0-0.02-0.002-0.025-0.002
		c-0.01,0-0.018-0.002-0.025-0.002c-0.01-0.001-0.018-0.001-0.025-0.001c-0.008-0.002-0.018-0.002-0.023-0.002
		c-0.012-0.002-0.02-0.002-0.027-0.004c-0.008,0-0.018,0-0.025,0s-0.018,0-0.023-0.002c-0.01,0-0.018,0-0.027-0.002
		c-0.008,0-0.018-0.002-0.023-0.002c-0.01,0-0.018,0-0.025,0s-0.018,0-0.025-0.002c-0.008,0-0.018,0-0.025-0.002
		c-0.01,0-0.018,0-0.025-0.002c-0.008,0-0.018,0-0.025,0s-0.018,0-0.023,0c-0.01-0.002-0.02-0.002-0.027-0.002
		s-0.016-0.002-0.023-0.002c-0.01,0-0.02-0.002-0.027-0.002s-0.016,0-0.025,0c-0.008,0-0.018,0-0.023,0
		c-0.008-0.002-0.018-0.002-0.025-0.002s-0.018,0-0.025-0.002c-0.008,0-0.018,0-0.025,0c-0.01,0-0.018-0.002-0.025-0.002
		s-0.018,0-0.025-0.001c-0.008,0-0.018,0-0.023,0c-0.01,0-0.018,0-0.027-0.001c-0.008,0-0.016,0-0.023,0s-0.018,0-0.027-0.002
		c-0.008,0-0.016,0-0.023,0s-0.02,0-0.025,0c-0.01-0.002-0.018-0.002-0.025-0.002s-0.018,0-0.025,0s-0.018-0.001-0.025-0.001
		c-0.01,0-0.018,0-0.025,0s-0.018,0-0.025,0s-0.018-0.001-0.025-0.001s-0.016,0-0.025,0c-0.008,0-0.018,0-0.025,0
		c-0.006,0-0.016,0-0.023,0s-0.02,0-0.027,0c-0.006,0-0.016-0.002-0.023-0.002c-0.01,0-0.018,0-0.025,0s-0.018,0-0.025,0
		s-0.018,0-0.023,0c-0.01,0-0.02,0-0.027,0s-0.018,0-0.023,0"/>
</g>
<g transform="matrix(1 0 0 1 132.242 146.532)">
	<path fill="none" stroke="#FFFFFF" stroke-linecap="round" stroke-linejoin="round" stroke-miterlimit="10.0375" d="
		M223.216,25.117c-0.01,0.016-0.018,0.029-0.027,0.044c-0.008,0.015-0.018,0.029-0.025,0.044c-0.012,0.016-0.02,0.029-0.027,0.043
		s-0.018,0.029-0.027,0.043c-0.01,0.016-0.02,0.029-0.025,0.045c-0.01,0.014-0.021,0.027-0.029,0.043
		c-0.008,0.014-0.018,0.028-0.027,0.041c-0.008,0.016-0.02,0.029-0.027,0.045c-0.008,0.014-0.02,0.027-0.027,0.043
		c-0.01,0.014-0.02,0.027-0.029,0.041c-0.01,0.017-0.02,0.028-0.027,0.043c-0.01,0.016-0.02,0.027-0.029,0.043
		c-0.008,0.015-0.018,0.027-0.029,0.043c-0.008,0.013-0.018,0.027-0.027,0.041c-0.008,0.015-0.02,0.028-0.029,0.041
		c-0.01,0.017-0.02,0.028-0.029,0.043s-0.02,0.027-0.029,0.041c-0.012,0.016-0.021,0.027-0.029,0.043
		c-0.01,0.014-0.021,0.027-0.029,0.041c-0.012,0.014-0.021,0.027-0.031,0.041c-0.01,0.015-0.02,0.027-0.029,0.041
		c-0.008,0.015-0.021,0.027-0.031,0.041c-0.01,0.015-0.02,0.027-0.029,0.041c-0.01,0.015-0.021,0.027-0.033,0.041
		c-0.01,0.014-0.02,0.027-0.029,0.041s-0.021,0.025-0.031,0.039c-0.01,0.016-0.021,0.027-0.031,0.041s-0.021,0.026-0.031,0.039
		c-0.012,0.016-0.021,0.028-0.031,0.041c-0.012,0.014-0.021,0.027-0.033,0.041c-0.012,0.012-0.021,0.025-0.031,0.039
		c-0.012,0.014-0.021,0.025-0.033,0.039s-0.02,0.025-0.031,0.039s-0.021,0.027-0.033,0.04s-0.021,0.026-0.033,0.04
		c-0.01,0.014-0.021,0.023-0.031,0.037c-0.012,0.014-0.021,0.027-0.035,0.04c-0.012,0.013-0.021,0.024-0.033,0.038
		s-0.021,0.025-0.033,0.039c-0.012,0.012-0.021,0.025-0.033,0.039c-0.012,0.012-0.021,0.023-0.033,0.037s-0.023,0.024-0.035,0.039
		c-0.012,0.012-0.021,0.023-0.033,0.037c-0.014,0.012-0.023,0.024-0.035,0.039c-0.014,0.012-0.023,0.023-0.035,0.035
		c-0.01,0.014-0.021,0.023-0.033,0.038c-0.012,0.013-0.023,0.024-0.035,0.037s-0.023,0.024-0.035,0.037
		c-0.012,0.012-0.025,0.022-0.037,0.036c-0.012,0.013-0.023,0.025-0.035,0.037c-0.012,0.013-0.023,0.024-0.035,0.037
		c-0.012,0.012-0.023,0.023-0.035,0.035s-0.023,0.025-0.035,0.037c-0.014,0.012-0.023,0.023-0.037,0.035
		c-0.012,0.014-0.023,0.025-0.037,0.037c-0.012,0.012-0.023,0.023-0.035,0.036c-0.014,0.012-0.025,0.022-0.037,0.034
		c-0.014,0.013-0.023,0.023-0.035,0.035c-0.016,0.012-0.025,0.023-0.039,0.035c-0.012,0.012-0.025,0.023-0.037,0.035
		s-0.023,0.023-0.037,0.035c-0.012,0.012-0.025,0.023-0.037,0.035c-0.014,0.012-0.023,0.023-0.037,0.035s-0.025,0.021-0.039,0.033
		c-0.012,0.012-0.023,0.023-0.037,0.035c-0.012,0.01-0.025,0.021-0.039,0.033c-0.012,0.012-0.023,0.021-0.037,0.033
		s-0.025,0.023-0.039,0.033c-0.014,0.013-0.025,0.023-0.039,0.035c-0.012,0.012-0.025,0.021-0.037,0.033
		c-0.014,0.012-0.027,0.021-0.041,0.032c-0.012,0.011-0.023,0.022-0.037,0.033c-0.014,0.013-0.027,0.021-0.039,0.032
		c-0.014,0.011-0.027,0.021-0.041,0.033c-0.012,0.012-0.023,0.021-0.039,0.031c-0.014,0.012-0.025,0.021-0.039,0.033
		s-0.025,0.021-0.039,0.033c-0.014,0.01-0.025,0.02-0.041,0.029c-0.014,0.013-0.025,0.022-0.041,0.033
		c-0.012,0.01-0.023,0.021-0.039,0.031c-0.014,0.012-0.025,0.021-0.041,0.03c-0.014,0.011-0.025,0.022-0.041,0.032
		c-0.014,0.011-0.025,0.021-0.037,0.031c-0.018,0.01-0.029,0.021-0.041,0.029c-0.018,0.012-0.029,0.021-0.041,0.031
		c-0.018,0.01-0.029,0.021-0.041,0.031c-0.018,0.01-0.029,0.02-0.041,0.029c-0.018,0.01-0.029,0.02-0.043,0.029
		c-0.016,0.012-0.027,0.021-0.041,0.029c-0.016,0.01-0.027,0.021-0.041,0.029c-0.016,0.012-0.027,0.021-0.043,0.029
		c-0.014,0.012-0.027,0.021-0.043,0.029c-0.014,0.011-0.027,0.021-0.041,0.029c-0.016,0.01-0.027,0.021-0.041,0.028
		c-0.018,0.011-0.029,0.021-0.045,0.029c-0.014,0.009-0.025,0.021-0.043,0.028c-0.014,0.011-0.025,0.019-0.041,0.029
		c-0.016,0.008-0.027,0.018-0.043,0.027s-0.027,0.02-0.043,0.027c-0.014,0.01-0.027,0.02-0.043,0.026
		c-0.016,0.011-0.027,0.021-0.043,0.028c-0.016,0.011-0.027,0.02-0.045,0.027c-0.012,0.008-0.025,0.019-0.041,0.027
		c-0.016,0.01-0.029,0.018-0.045,0.026c-0.014,0.008-0.029,0.019-0.043,0.028c-0.016,0.008-0.029,0.018-0.043,0.024
		c-0.016,0.011-0.029,0.019-0.045,0.026c-0.014,0.009-0.029,0.019-0.043,0.025c-0.016,0.01-0.029,0.018-0.045,0.027
		c-0.014,0.008-0.029,0.018-0.045,0.023c-0.016,0.01-0.029,0.019-0.043,0.026c-0.016,0.009-0.029,0.019-0.045,0.024
		c-0.016,0.008-0.029,0.019-0.045,0.025c-0.016,0.008-0.029,0.018-0.045,0.025c-0.014,0.008-0.029,0.016-0.045,0.025
		c-0.016,0.006-0.029,0.016-0.045,0.023c-0.014,0.008-0.029,0.018-0.045,0.023c-0.014,0.009-0.029,0.017-0.045,0.023
		c-0.016,0.008-0.029,0.018-0.045,0.023c-0.016,0.01-0.029,0.018-0.045,0.025s-0.031,0.016-0.045,0.022
		c-0.016,0.008-0.031,0.017-0.047,0.022c-0.016,0.008-0.029,0.017-0.045,0.023c-0.018,0.008-0.029,0.016-0.047,0.023
		c-0.016,0.008-0.029,0.015-0.045,0.021c-0.018,0.009-0.031,0.017-0.049,0.022c-0.014,0.009-0.027,0.017-0.045,0.023
		c-0.014,0.006-0.029,0.014-0.045,0.021c-0.016,0.007-0.029,0.014-0.047,0.021c-0.016,0.008-0.031,0.014-0.047,0.02
		c-0.016,0.009-0.031,0.017-0.045,0.023c-0.018,0.006-0.033,0.014-0.047,0.021c-0.018,0.008-0.031,0.015-0.047,0.021
		c-0.018,0.008-0.031,0.014-0.047,0.021c-0.016,0.007-0.031,0.014-0.049,0.02c-0.014,0.008-0.029,0.016-0.047,0.021
		c-0.016,0.007-0.029,0.014-0.047,0.02c-0.016,0.008-0.029,0.014-0.047,0.021c-0.016,0.007-0.031,0.013-0.047,0.02
		c-0.016,0.006-0.031,0.014-0.047,0.02c-0.018,0.009-0.031,0.015-0.047,0.021c-0.018,0.007-0.031,0.013-0.047,0.021
		c-0.018,0.006-0.033,0.012-0.051,0.02c-0.016,0.006-0.029,0.012-0.047,0.018c-0.016,0.009-0.031,0.015-0.049,0.021
		c-0.016,0.007-0.031,0.013-0.047,0.019s-0.031,0.013-0.047,0.019c-0.018,0.006-0.033,0.013-0.049,0.019
		c-0.018,0.006-0.033,0.012-0.049,0.018s-0.031,0.012-0.049,0.018c-0.014,0.006-0.029,0.012-0.047,0.018
		c-0.016,0.007-0.031,0.013-0.049,0.019c-0.016,0.007-0.031,0.013-0.047,0.017c-0.018,0.006-0.033,0.013-0.049,0.019
		c-0.018,0.006-0.033,0.01-0.051,0.017c-0.018,0.006-0.031,0.01-0.049,0.016c-0.016,0.006-0.033,0.011-0.049,0.017
		c-0.016,0.007-0.031,0.011-0.049,0.017c-0.016,0.004-0.031,0.011-0.049,0.015c-0.018,0.006-0.033,0.011-0.049,0.017
		s-0.031,0.012-0.049,0.016c-0.016,0.006-0.033,0.01-0.049,0.015c-0.018,0.006-0.033,0.011-0.049,0.015
		c-0.016,0.006-0.033,0.01-0.051,0.016s-0.031,0.011-0.047,0.015c-0.02,0.004-0.035,0.009-0.051,0.015
		c-0.018,0.006-0.031,0.01-0.051,0.014c-0.016,0.005-0.031,0.01-0.049,0.014s-0.033,0.01-0.049,0.014
		c-0.018,0.004-0.035,0.008-0.051,0.014c-0.016,0.005-0.033,0.009-0.049,0.013c-0.018,0.005-0.033,0.011-0.051,0.015
		c-0.016,0.004-0.031,0.008-0.051,0.012c-0.016,0.004-0.031,0.009-0.049,0.014c-0.016,0.002-0.033,0.007-0.051,0.012
		c-0.018,0.002-0.031,0.008-0.049,0.012c-0.018,0.002-0.033,0.008-0.051,0.013c-0.018,0.002-0.031,0.007-0.051,0.01
		c-0.016,0.004-0.033,0.009-0.049,0.013c-0.018,0.002-0.035,0.008-0.051,0.01c-0.016,0.004-0.033,0.008-0.049,0.012
		c-0.02,0.004-0.035,0.006-0.051,0.011c-0.018,0.003-0.033,0.007-0.051,0.011c-0.018,0.002-0.035,0.006-0.051,0.008
		c-0.018,0.006-0.033,0.009-0.049,0.012c-0.02,0.003-0.035,0.006-0.053,0.011c-0.018,0.003-0.033,0.007-0.051,0.009
		c-0.018,0.004-0.033,0.006-0.051,0.01c-0.016,0.002-0.033,0.006-0.051,0.008c-0.016,0.004-0.033,0.006-0.049,0.01
		c-0.018,0.002-0.033,0.006-0.053,0.008c-0.016,0.002-0.033,0.006-0.049,0.008c-0.018,0.004-0.035,0.006-0.051,0.008
		c-0.018,0.002-0.035,0.006-0.053,0.009c-0.018,0.002-0.033,0.005-0.049,0.008c-0.02,0.002-0.033,0.004-0.053,0.008
		c-0.016,0.001-0.033,0.005-0.051,0.007s-0.035,0.006-0.051,0.006c-0.018,0.004-0.033,0.006-0.051,0.006
		c-0.018,0.004-0.033,0.006-0.051,0.008s-0.035,0.005-0.051,0.006c-0.018,0.002-0.033,0.005-0.051,0.006
		c-0.018,0.002-0.035,0.004-0.053,0.006s-0.033,0.004-0.049,0.006c-0.02,0.002-0.035,0.004-0.053,0.006
		c-0.018,0-0.033,0.002-0.051,0.004s-0.035,0.002-0.053,0.004s-0.033,0.004-0.051,0.005c-0.016,0.002-0.033,0.004-0.051,0.005
		s-0.033,0.003-0.051,0.005c-0.018,0.001-0.035,0.002-0.051,0.004c-0.018,0-0.035,0.002-0.051,0.003
		c-0.02,0.002-0.035,0.002-0.053,0.004s-0.033,0.002-0.053,0.002c-0.018,0.002-0.033,0.004-0.051,0.004
		c-0.018,0.002-0.033,0.002-0.051,0.002c-0.018,0.002-0.033,0.002-0.051,0.004c-0.018,0-0.035,0.002-0.053,0.002
		c-0.016,0-0.033,0-0.051,0c-0.016,0.002-0.033,0.002-0.051,0.002c-0.018,0.002-0.035,0.002-0.053,0.002
		c-0.018,0.002-0.033,0.002-0.051,0.002s-0.033,0.001-0.051,0.001s-0.035,0-0.051,0c-0.02,0-0.035,0.001-0.053,0.001
		s-0.035,0-0.051,0c-0.018,0-0.035,0-0.051,0c-0.018,0-0.035,0-0.053,0s-0.035,0-0.051-0.001c-0.02,0-0.035,0-0.051,0
		c-0.02,0-0.033,0-0.053-0.001c-0.018,0-0.033,0-0.051,0c-0.018-0.002-0.035-0.002-0.053-0.002
		c-0.018-0.002-0.033-0.002-0.051-0.002c-0.018-0.002-0.033-0.002-0.051-0.002s-0.033-0.002-0.053-0.002
		c-0.016-0.002-0.033-0.002-0.051-0.004c-0.018,0-0.033,0-0.051,0c-0.018-0.002-0.033-0.004-0.053-0.004
		c-0.016-0.002-0.033-0.002-0.051-0.002c-0.018-0.002-0.035-0.004-0.051-0.004c-0.018-0.002-0.035-0.003-0.051-0.005
		c-0.018-0.002-0.035-0.002-0.051-0.003c-0.02-0.001-0.035-0.003-0.053-0.005c-0.018-0.001-0.033-0.002-0.051-0.004
		s-0.033-0.003-0.051-0.005s-0.035-0.004-0.053-0.004c-0.018-0.002-0.033-0.004-0.051-0.006c-0.018,0-0.033-0.004-0.051-0.006
		c-0.018,0-0.033-0.002-0.051-0.004c-0.02-0.002-0.035-0.004-0.053-0.006c-0.016-0.002-0.033-0.004-0.049-0.006
		c-0.018-0.002-0.035-0.004-0.053-0.006s-0.033-0.004-0.051-0.006c-0.016-0.004-0.033-0.004-0.051-0.008
		c-0.018-0.002-0.033-0.004-0.051-0.006s-0.033-0.004-0.053-0.008c-0.016-0.003-0.031-0.005-0.049-0.007
		c-0.018-0.004-0.035-0.005-0.051-0.008c-0.02-0.003-0.035-0.005-0.053-0.009c-0.016-0.002-0.033-0.006-0.049-0.006
		c-0.018-0.004-0.033-0.006-0.053-0.01c-0.016-0.003-0.033-0.006-0.049-0.009c-0.018-0.003-0.033-0.005-0.051-0.007
		c-0.018-0.004-0.035-0.006-0.051-0.01c-0.02-0.002-0.033-0.006-0.053-0.01c-0.016-0.004-0.031-0.006-0.049-0.01
		c-0.018-0.003-0.035-0.006-0.051-0.009c-0.018-0.003-0.033-0.008-0.051-0.011c-0.018-0.004-0.033-0.006-0.051-0.01
		c-0.016-0.004-0.033-0.006-0.049-0.01c-0.018-0.004-0.033-0.008-0.053-0.012c-0.016-0.003-0.031-0.006-0.049-0.01
		s-0.033-0.008-0.051-0.012s-0.033-0.006-0.051-0.012c-0.016-0.003-0.031-0.007-0.049-0.011s-0.035-0.009-0.051-0.013
		c-0.018-0.004-0.033-0.006-0.049-0.012c-0.02-0.004-0.035-0.008-0.051-0.012c-0.018-0.004-0.033-0.008-0.051-0.014
		c-0.018-0.002-0.033-0.006-0.049-0.012c-0.016-0.004-0.033-0.008-0.051-0.013c-0.016-0.005-0.033-0.008-0.049-0.012
		c-0.018-0.005-0.033-0.011-0.051-0.015s-0.031-0.008-0.049-0.014c-0.018-0.004-0.033-0.008-0.051-0.014
		c-0.016-0.006-0.033-0.01-0.049-0.014s-0.033-0.01-0.051-0.015c-0.016-0.006-0.031-0.01-0.047-0.014
		c-0.018-0.005-0.035-0.011-0.051-0.017c-0.016-0.004-0.031-0.01-0.049-0.014c-0.016-0.005-0.033-0.011-0.049-0.016
		c-0.018-0.004-0.033-0.01-0.049-0.014c-0.016-0.006-0.033-0.012-0.049-0.018c-0.02-0.005-0.033-0.012-0.049-0.016
		c-0.018-0.006-0.033-0.01-0.051-0.016c-0.016-0.006-0.031-0.011-0.049-0.017c-0.016-0.007-0.029-0.011-0.047-0.017
		s-0.035-0.011-0.051-0.017s-0.031-0.013-0.049-0.019c-0.016-0.004-0.031-0.01-0.047-0.016c-0.018-0.006-0.033-0.012-0.049-0.018
		c-0.018-0.006-0.033-0.012-0.049-0.018s-0.031-0.012-0.047-0.018s-0.033-0.012-0.049-0.018s-0.031-0.014-0.049-0.02
		s-0.031-0.012-0.047-0.018c-0.018-0.006-0.033-0.012-0.047-0.021c-0.018-0.006-0.033-0.012-0.051-0.019
		c-0.016-0.006-0.031-0.014-0.047-0.02s-0.031-0.013-0.049-0.019c-0.016-0.007-0.031-0.013-0.047-0.019
		c-0.016-0.009-0.031-0.015-0.047-0.021c-0.018-0.009-0.031-0.015-0.047-0.021c-0.018-0.007-0.033-0.014-0.047-0.02
		c-0.018-0.008-0.033-0.014-0.049-0.021c-0.016-0.006-0.031-0.013-0.047-0.02c-0.016-0.008-0.031-0.014-0.047-0.021
		c-0.016-0.006-0.031-0.013-0.047-0.02c-0.016-0.008-0.031-0.016-0.047-0.021s-0.031-0.014-0.047-0.021
		c-0.018-0.009-0.031-0.015-0.047-0.021c-0.018-0.008-0.029-0.016-0.047-0.022c-0.016-0.007-0.029-0.015-0.047-0.021
		c-0.016-0.008-0.029-0.016-0.047-0.021c-0.016-0.008-0.029-0.016-0.047-0.021c-0.014-0.008-0.029-0.016-0.045-0.022
		c-0.014-0.007-0.031-0.017-0.045-0.022c-0.016-0.008-0.031-0.015-0.047-0.021c-0.016-0.008-0.031-0.016-0.045-0.023
		c-0.016-0.007-0.031-0.016-0.047-0.023c-0.014-0.008-0.029-0.014-0.045-0.022c-0.016-0.008-0.031-0.017-0.045-0.022
		c-0.018-0.008-0.031-0.017-0.047-0.023c-0.014-0.009-0.029-0.016-0.045-0.025c-0.014-0.006-0.029-0.016-0.045-0.022
		s-0.029-0.017-0.045-0.024c-0.016-0.007-0.029-0.017-0.045-0.023c-0.014-0.008-0.031-0.018-0.045-0.025
		c-0.016-0.008-0.029-0.016-0.045-0.025c-0.014-0.008-0.029-0.016-0.045-0.023c-0.016-0.01-0.029-0.018-0.043-0.023
		c-0.018-0.011-0.029-0.019-0.045-0.027c-0.016-0.008-0.029-0.018-0.043-0.025c-0.018-0.01-0.031-0.018-0.047-0.025
		s-0.029-0.018-0.043-0.025c-0.016-0.008-0.029-0.018-0.045-0.025c-0.014-0.009-0.027-0.021-0.043-0.027
		c-0.016-0.01-0.027-0.019-0.045-0.027c-0.014-0.008-0.027-0.018-0.043-0.025c-0.016-0.011-0.027-0.02-0.043-0.027
		c-0.014-0.01-0.027-0.018-0.043-0.028c-0.016-0.008-0.029-0.019-0.043-0.026c-0.016-0.01-0.027-0.019-0.045-0.027
		c-0.012-0.01-0.025-0.018-0.041-0.028c-0.016-0.009-0.029-0.019-0.043-0.028c-0.016-0.008-0.029-0.019-0.043-0.027
		c-0.014-0.01-0.029-0.02-0.043-0.028s-0.027-0.021-0.041-0.028c-0.016-0.01-0.029-0.021-0.043-0.027
		c-0.016-0.012-0.027-0.021-0.043-0.029c-0.014-0.012-0.027-0.021-0.041-0.029c-0.014-0.011-0.027-0.021-0.043-0.031
		c-0.012-0.008-0.027-0.02-0.041-0.028s-0.027-0.021-0.041-0.029c-0.014-0.01-0.029-0.021-0.041-0.03
		c-0.014-0.011-0.029-0.021-0.041-0.031c-0.014-0.01-0.029-0.021-0.041-0.028c-0.016-0.011-0.029-0.021-0.041-0.03
		c-0.016-0.011-0.029-0.021-0.041-0.033c-0.014-0.01-0.029-0.02-0.041-0.029c-0.014-0.01-0.027-0.021-0.041-0.03
		c-0.014-0.011-0.027-0.021-0.041-0.032c-0.012-0.011-0.025-0.021-0.041-0.031c-0.012-0.01-0.023-0.021-0.039-0.031
		c-0.014-0.01-0.025-0.021-0.039-0.032s-0.027-0.021-0.041-0.032c-0.014-0.01-0.025-0.021-0.039-0.031
		c-0.014-0.012-0.025-0.021-0.041-0.033c-0.012-0.01-0.023-0.021-0.039-0.031c-0.014-0.012-0.025-0.021-0.037-0.034
		c-0.014-0.01-0.025-0.021-0.039-0.03c-0.014-0.013-0.025-0.022-0.039-0.035c-0.016-0.012-0.025-0.021-0.039-0.033
		c-0.014-0.01-0.025-0.021-0.039-0.033c-0.012-0.01-0.025-0.021-0.037-0.033c-0.014-0.011-0.025-0.021-0.039-0.033
		c-0.014-0.013-0.025-0.022-0.037-0.035c-0.014-0.012-0.027-0.022-0.039-0.035c-0.014-0.01-0.023-0.021-0.037-0.032
		c-0.014-0.013-0.025-0.022-0.039-0.035c-0.012-0.013-0.023-0.022-0.037-0.032c-0.012-0.013-0.025-0.023-0.037-0.035
		c-0.014-0.013-0.025-0.023-0.037-0.035c-0.014-0.012-0.023-0.023-0.037-0.035c-0.012-0.012-0.025-0.025-0.037-0.037
		s-0.025-0.023-0.037-0.035s-0.023-0.023-0.035-0.035c-0.012-0.014-0.023-0.025-0.037-0.037c-0.012-0.012-0.023-0.023-0.037-0.035"
		/>
</g>
<g transform="matrix(1 0 0 1 132.242 146.532)">
	
		<path fill="none" stroke="#FFFFFF" stroke-linecap="round" stroke-linejoin="round" stroke-miterlimit="10.0375" stroke-dasharray="4 4" d="
		M213.542,19.711v122.465"/>
</g>
<g transform="matrix(1 0 0 1 132.242 146.532)">
	<path fill="#FFFFFF" d="M216.568,142.175h-6.051l3.025,13.59L216.568,142.175z"/>
</g>
<ellipse fill="#00FFFF" cx="345.784" cy="278.85" rx="4.5" ry="4.801"/>
<ellipse fill="#00FFFF" cx="345.784" cy="52.741" rx="4.5" ry="4.801"/>
<g transform="matrix(1 0 0 1 132.242 146.532)">
	<circle fill="#66CC00" cx="252.076" cy="-36.561" r="4.065"/>
</g>
<g transform="matrix(1 0 0 1 132.242 146.532)">
	<path fill="none" stroke="#FFFFFF" stroke-linecap="round" stroke-linejoin="round" stroke-miterlimit="10.0375" d="
		M-224.982-99.235V23.23"/>
</g>
<g transform="matrix(1 0 0 1 132.242 146.532)">
	<path fill="#FFFFFF" d="M-224.982-112.825l-3.026,13.59h6.052L-224.982-112.825z"/>
</g>
<g transform="matrix(1 0 0 1 132.242 146.532)">
	<path fill="none" stroke="#FFFFFF" stroke-linecap="round" stroke-linejoin="round" stroke-miterlimit="10.0375" d="
		M-209.585,23.23h-30"/>
</g>
<g transform="matrix(1 0 0 1 132.242 146.532)">
	
		<path fill="none" stroke="#FFFFFF" stroke-linecap="round" stroke-linejoin="round" stroke-miterlimit="10.0375" stroke-dasharray="4 4" d="
		M-224.982,23.675V146.14"/>
</g>
<g transform="matrix(1 0 0 1 132.242 146.532)">
	<path fill="#FFFFFF" d="M-221.957,146.14h-6.052l3.026,13.59L-221.957,146.14z"/>
</g>
<ellipse fill="#00FFFF" cx="-92.74" cy="282.816" rx="4.5" ry="4.8"/>
<ellipse fill="#00FFFF" cx="-92.74" cy="56.707" rx="4.5" ry="4.8"/>
<text transform="matrix(1 0 0 1 -141.177 -4.9683)" fill="#FFFFFF" font-family="'Lato-Regular'" font-size="24">Transistor</text>
<text transform="matrix(1 0 0 1 243.8235 -5.9683)" fill="#FFFFFF" font-family="'Lato-Regular'" font-size="24">Quantum Bit (Qubit)</text>
<text transform="matrix(1 0 0 1 -75.572 295.1157)" fill="#FFFFFF" font-family="'Lato-Regular'" font-size="24">0</text>
<text transform="matrix(1 0 0 1 -75.572 58.1284)" fill="#FFFFFF" font-family="'Lato-Regular'" font-size="24">1</text>
<text transform="matrix(1 0 0 1 359.429 300.1157)" fill="#FFFFFF" font-family="'Lato-Regular'" font-size="24">0</text>
<text transform="matrix(1 0 0 1 359.429 47.1284)" fill="#FFFFFF" font-family="'Lato-Regular'" font-size="24">1</text>
<text transform="matrix(1 0 0 1 397.429 100.1284)" fill="#FFFFFF" font-family="'Lato-Regular'" font-size="24">superposition</text>
</svg>
