<?xml version="1.0" encoding="utf-8"?>
<!-- Generator: Adobe Illustrator 12.0.0, SVG Export Plug-In . SVG Version: 6.00 Build 51448)  -->
<!DOCTYPE svg PUBLIC "-//W3C//DTD SVG 1.1//EN" "http://www.w3.org/Graphics/SVG/1.1/DTD/svg11.dtd" [
	<!ENTITY ns_svg "http://www.w3.org/2000/svg">
	<!ENTITY ns_xlink "http://www.w3.org/1999/xlink">
]>
<svg  version="1.1" id="Layer_1" xmlns="&ns_svg;" xmlns:xlink="&ns_xlink;" width="479.911" height="989.979"
	 viewBox="55.711 -85.707 479.911 989.979" overflow="visible" enable-background="new 55.711 -85.707 479.911 989.979"
	 xml:space="preserve">
<g transform="translate(60,52)">
	<path fill="none" stroke="#FFFFFF" stroke-width="2" d="M99.381,171.574c0,50,0,62.5,0,62.5"/>
	<path fill="none" stroke="#FFFFFF" stroke-width="2" d="M124.381,74.074v-77.5h137.5"/>
	<path fill="none" stroke="#FFFFFF" stroke-width="2" d="M74.381,76.574v-130h137.5"/>
	<g>
		<path fill="#FFFFFF" d="M149.381,71.574h-3.569H52.956h-3.574v3.569v47.622c0,28.169,22.5,49.984,50,50c27.5,0,50-21.831,50-50
			c0,0,0,0,0-47.62L149.381,71.574L149.381,71.574z M142.237,78.717c0,19.94,0,32.65,0,38.096c0,2.974,0,4.463,0,5.207
			c0,0.371,0,0.576,0,0.67c0,0.046,0,0.063,0,0.075c0,24.398-19.099,41.665-42.856,41.665c-23.757,0-42.856-18.455-42.856-42.856
			V78.718L142.237,78.717L142.237,78.717z"/>
	</g>
</g>
<path fill="none" stroke="#FFFFFF" stroke-width="2" d="M296.881,223.901c0,50,0,62.5,0,62.5"/>
<path fill="none" stroke="#FFFFFF" stroke-width="2" d="M321.881,126.401V-38.598"/>
<path fill="none" stroke="#FFFFFF" stroke-width="2" d="M271.881,126.401V-38.598"/>
<g transform="translate(26.600,-38.862)">
	<path fill="#FFFFFF" d="M227.781,148.388c-6.609-3.992-7.5-5.625-7.5-5.625v-9.141l6.096,5c-0.001,0,17.499,14.141,43.904,14.141
		c26.406,0,43.906-14.141,43.906-14.141l6.094-5v9.141c-2.344,1.953-4.141,3.555-7.5,5.547c-7.749,4.683-22.567,11.953-42.5,11.953
		C250.403,160.263,235.582,153.022,227.781,148.388z"/>
	<path fill="#FFFFFF" d="M320.281,147.997l-6.094,5c0,0-17.5,14.141-43.906,14.141c-26.405,0-43.904-14.141-43.904-14.141l-6.096-5
		v7.891v35c0,6.021-0.061,19.225,6.017,34.063s18.358,31.343,42.188,44.219l1.797-3.281l1.798,3.281
		c47.664-25.757,48.202-66.389,48.202-78.281v-35L320.281,147.997L320.281,147.997z M312.781,162.685v28.203
		c0,11.711,0.324,45.718-42.5,69.922c-21.073-11.916-31.709-26.304-37.03-39.297c-5.489-13.399-5.47-24.604-5.47-30.625v-28.125
		c7.771,4.687,22.622,11.875,42.5,11.875C290.213,174.638,305.032,167.367,312.781,162.685z"/>
</g>
<g>
	<path fill="#FFFFFF" d="M321.881,55.151c-3.452,0-6.25-2.798-6.25-6.25c0-3.451,2.798-6.25,6.25-6.25s6.25,2.799,6.25,6.25
		C328.131,52.353,325.333,55.151,321.881,55.151z"/>
	<path fill="#FFFFFF" d="M271.881,4.838c-3.452,0-6.25-2.798-6.25-6.25c0-3.451,2.798-6.25,6.25-6.25s6.25,2.799,6.25,6.25
		C278.131,2.04,275.333,4.838,271.881,4.838z"/>
</g>
<path fill="none" stroke="#FFFFFF" stroke-width="2" d="M321.881-38.599c-3.452,0-6.25-2.798-6.25-6.25
	c0-3.451,2.798-6.25,6.25-6.25s6.25,2.799,6.25,6.25C328.131-41.397,325.333-38.599,321.881-38.599z"/>
<path fill="none" stroke="#FFFFFF" stroke-width="2" d="M271.881-38.599c-3.452,0-6.25-2.798-6.25-6.25
	c0-3.451,2.798-6.25,6.25-6.25s6.25,2.799,6.25,6.25C278.131-41.397,275.333-38.599,271.881-38.599z"/>
<path fill="none" stroke="#FFFFFF" stroke-width="2" d="M296.881,298.901c-3.452,0-6.25-2.798-6.25-6.25s2.798-6.25,6.25-6.25
	s6.25,2.798,6.25,6.25S300.333,298.901,296.881,298.901z"/>
<path fill="none" stroke="#FFFFFF" stroke-width="2" d="M159.381,298.901c-3.452,0-6.25-2.798-6.25-6.25s2.798-6.25,6.25-6.25
	c3.452,0,6.25,2.798,6.25,6.25S162.833,298.901,159.381,298.901z"/>
<text transform="matrix(1 0 0 1 262.5002 -64.5992)" fill="#FFFFFF" font-family="'Lato-Regular'" font-size="24">A</text>
<text transform="matrix(1 0 0 1 315.5002 -64.5992)" fill="#FFFFFF" font-family="'Lato-Regular'" font-size="24">B</text>
<text transform="matrix(1 0 0 1 108.5001 305.4008)" fill="#FFFFFF" font-family="'Lato-Regular'" font-size="24">C</text>
<text transform="matrix(1 0 0 1 133.5001 175.4008)" fill="#FFFFFF" font-family="'Lato-Regular'" font-size="24">AND</text>
<text transform="matrix(1 0 0 1 272.5002 174.4008)" fill="#FFFFFF" font-family="'Lato-Regular'" font-size="24">XOR</text>
<path fill="none" stroke="#FFFFFF" stroke-width="2" d="M486.881,316.901V-38.598"/>
<path fill="none" stroke="#FFFFFF" stroke-width="2" d="M486.881-38.599c-3.452,0-6.25-2.798-6.25-6.25
	c0-3.451,2.798-6.25,6.25-6.25s6.25,2.799,6.25,6.25C493.131-41.397,490.333-38.599,486.881-38.599z"/>
<rect x="85.229" y="-29.11" fill="none" stroke="#FFFFFF" stroke-width="2" width="283.485" height="302.985"/>
<text transform="matrix(1 0 0 1 426.7111 -65.1085)" fill="#FFFFFF" font-family="'Lato-Regular'" font-size="24">CARRY IN</text>
<g transform="translate(60,52)">
	<path fill="none" stroke="#FFFFFF" stroke-width="2" d="M264.381,539.574c0,50,0,62.5,0,62.5"/>
	<path fill="none" stroke="#FFFFFF" stroke-width="2" d="M289.381,442.074v-77.5h137.5"/>
	<path fill="none" stroke="#FFFFFF" stroke-width="2" d="M239.381,444.574v-130h137.5"/>
	<g>
		<path fill="#FFFFFF" d="M314.381,439.574h-3.568h-92.856h-3.574v3.569v47.622c0,28.169,22.5,49.984,50,50c27.5,0,50-21.831,50-50
			c0,0,0,0,0-47.62L314.381,439.574L314.381,439.574z M307.236,446.717c0,19.94,0,32.65,0,38.096c0,2.974,0,4.463,0,5.207
			c0,0.371,0,0.576,0,0.67c0,0.046,0,0.063,0,0.075c0,24.398-19.098,41.665-42.855,41.665c-23.757,0-42.855-18.455-42.855-42.856
			v-42.855L307.236,446.717L307.236,446.717z"/>
	</g>
</g>
<path fill="none" stroke="#FFFFFF" stroke-width="2" d="M461.881,591.901c0,210,0,262.5,0,262.5"/>
<path fill="none" stroke="#FFFFFF" stroke-width="2" d="M486.881,494.401V329.402"/>
<path fill="none" stroke="#FFFFFF" stroke-width="2" d="M436.881,494.401V329.402"/>
<g transform="translate(26.600,-38.862)">
	<path fill="#FFFFFF" d="M392.781,516.388c-6.609-3.992-7.5-5.625-7.5-5.625v-9.141l6.096,5c-0.001,0,17.499,14.141,43.904,14.141
		c26.406,0,43.906-14.141,43.906-14.141l6.094-5v9.141c-2.344,1.953-4.141,3.555-7.5,5.547c-7.749,4.683-22.567,11.953-42.5,11.953
		C415.403,528.263,400.582,521.022,392.781,516.388z"/>
	<path fill="#FFFFFF" d="M485.281,515.997l-6.094,5c0,0-17.5,14.141-43.906,14.141c-26.405,0-43.904-14.141-43.904-14.141l-6.096-5
		v7.891v35c0,6.021-0.061,19.225,6.017,34.063s18.358,31.343,42.188,44.219l1.797-3.281l1.798,3.281
		c47.664-25.757,48.202-66.389,48.202-78.281v-35L485.281,515.997L485.281,515.997z M477.781,530.685v28.203
		c0,11.711,0.324,45.718-42.5,69.922c-21.073-11.916-31.709-26.304-37.03-39.297c-5.489-13.399-5.47-24.604-5.47-30.625v-28.125
		c7.771,4.687,22.622,11.875,42.5,11.875C455.213,542.638,470.032,535.367,477.781,530.685z"/>
</g>
<g>
	<path fill="#FFFFFF" d="M486.881,423.151c-3.452,0-6.25-2.798-6.25-6.25c0-3.451,2.798-6.25,6.25-6.25s6.25,2.799,6.25,6.25
		C493.131,420.353,490.333,423.151,486.881,423.151z"/>
	<path fill="#FFFFFF" d="M436.881,372.838c-3.452,0-6.25-2.798-6.25-6.25c0-3.451,2.798-6.25,6.25-6.25s6.25,2.799,6.25,6.25
		C443.131,370.04,440.333,372.838,436.881,372.838z"/>
</g>
<path fill="none" stroke="#FFFFFF" stroke-width="2" d="M486.881,329.401c-3.452,0-6.25-2.798-6.25-6.25
	c0-3.451,2.798-6.25,6.25-6.25s6.25,2.799,6.25,6.25C493.131,326.603,490.333,329.401,486.881,329.401z"/>
<path fill="none" stroke="#FFFFFF" stroke-width="2" d="M436.881,329.401c-3.452,0-6.25-2.798-6.25-6.25
	c0-3.451,2.798-6.25,6.25-6.25s6.25,2.799,6.25,6.25C443.131,326.603,440.333,329.401,436.881,329.401z"/>
<path fill="none" stroke="#FFFFFF" stroke-width="2" d="M461.881,866.901c-3.452,0-6.25-2.798-6.25-6.25s2.798-6.25,6.25-6.25
	s6.25,2.798,6.25,6.25S465.333,866.901,461.881,866.901z"/>
<path fill="none" stroke="#FFFFFF" stroke-width="2" d="M324.381,666.901c-3.451,0-6.25-2.798-6.25-6.25s2.799-6.25,6.25-6.25
	c3.452,0,6.25,2.798,6.25,6.25S327.833,666.901,324.381,666.901z"/>
<text transform="matrix(1 0 0 1 298.5002 543.4008)" fill="#FFFFFF" font-family="'Lato-Regular'" font-size="24">AND</text>
<text transform="matrix(1 0 0 1 437.5002 542.4008)" fill="#FFFFFF" font-family="'Lato-Regular'" font-size="24">XOR</text>
<rect x="250.229" y="338.889" fill="none" stroke="#FFFFFF" stroke-width="2" width="283.485" height="302.985"/>
<polyline fill="none" stroke="#FFFFFF" stroke-width="2" points="296.881,298.901 296.631,316.458 430.631,323.151 "/>
<path fill="none" stroke="#FFFFFF" stroke-width="2" d="M136.881,731.506v-62.214"/>
<path fill="none" stroke="#FFFFFF" stroke-width="2" d="M86.881,731.506v-62.214"/>
<path fill="#FFFFFF" d="M161.881,713.026l-6.094,5c0,0-17.5,14.141-43.906,14.141c-26.405,0-43.904-14.141-43.904-14.141l-6.096-5
	v7.891v35c0,6.021-0.061,19.225,6.017,34.063s18.358,31.343,42.188,44.219l1.797-3.281l1.798,3.281
	c47.664-25.757,48.202-66.389,48.202-78.281v-35L161.881,713.026L161.881,713.026z M154.381,727.713v28.203
	c0,11.711,0.324,45.718-42.5,69.922c-21.073-11.916-31.709-26.304-37.03-39.297c-5.489-13.399-5.47-24.604-5.47-30.625v-28.125
	c7.771,4.687,22.622,11.875,42.5,11.875C131.813,739.666,146.632,732.396,154.381,727.713z"/>
<path fill="none" stroke="#FFFFFF" stroke-width="2" d="M136.881,669.291c-3.452,0-6.25-2.798-6.25-6.25
	c0-3.451,2.798-6.25,6.25-6.25s6.25,2.799,6.25,6.25C143.131,666.494,140.333,669.291,136.881,669.291z"/>
<path fill="none" stroke="#FFFFFF" stroke-width="2" d="M86.881,669.291c-3.452,0-6.25-2.798-6.25-6.25
	c0-3.451,2.798-6.25,6.25-6.25s6.25,2.799,6.25,6.25C93.131,666.494,90.333,669.291,86.881,669.291z"/>
<text transform="matrix(1 0 0 1 94.234 780.849)" fill="#FFFFFF" font-family="'Lato-Regular'" font-size="24">OR</text>
<line fill="none" stroke="#FFFFFF" stroke-width="2" x1="159.381" y1="298.901" x2="86.881" y2="656.791"/>
<line fill="none" stroke="#FFFFFF" stroke-width="2" x1="318.131" y1="660.651" x2="143.131" y2="663.041"/>
<path fill="none" stroke="#FFFFFF" stroke-width="2" d="M111.881,858.005v-32.167"/>
<path fill="none" stroke="#FFFFFF" stroke-width="2" d="M118.131,864.256c0,3.451-2.798,6.25-6.25,6.25s-6.25-2.799-6.25-6.25
	c0-3.452,2.798-6.25,6.25-6.25S118.131,860.804,118.131,864.256z"/>
<text transform="matrix(1 0 0 1 55.7111 899.891)" fill="#FFFFFF" font-family="'Lato-Regular'" font-size="24">CARRY OUT</text>
<text transform="matrix(1 0 0 1 436.631 899.7914)" fill="#FFFFFF" font-family="'Lato-Regular'" font-size="24">SUM</text>
</svg>
