<?xml version="1.0" encoding="utf-8"?>
<!-- Generator: Adobe Illustrator 12.0.0, SVG Export Plug-In . SVG Version: 6.00 Build 51448)  -->
<!DOCTYPE svg PUBLIC "-//W3C//DTD SVG 1.1//EN" "http://www.w3.org/Graphics/SVG/1.1/DTD/svg11.dtd" [
	<!ENTITY ns_svg "http://www.w3.org/2000/svg">
	<!ENTITY ns_xlink "http://www.w3.org/1999/xlink">
]>
<svg  version="1.1" id="Layer_1" xmlns="&ns_svg;" xmlns:xlink="&ns_xlink;" width="1335.124" height="1208.06"
	 viewBox="-398.083 -241.458 1335.124 1208.06" overflow="visible" enable-background="new -398.083 -241.458 1335.124 1208.06"
	 xml:space="preserve">
<g transform="translate(60,52)">
	<path fill="none" stroke="#FFFFFF" stroke-width="2" d="M99.381,171.574c0,50,0,62.5,0,62.5"/>
	<path fill="none" stroke="#FFFFFF" stroke-width="2" d="M124.381,74.074v-77.5h137.5"/>
	<path fill="none" stroke="#FFFFFF" stroke-width="2" d="M74.381,76.574v-130h137.5"/>
	<g>
		<path fill="#FFFFFF" d="M149.381,71.574h-3.569H52.956h-3.574v3.569v47.622c0,28.169,22.5,49.984,50,50c27.5,0,50-21.831,50-50
			c0,0,0,0,0-47.62L149.381,71.574L149.381,71.574z M142.237,78.717c0,19.94,0,32.65,0,38.096c0,2.974,0,4.463,0,5.207
			c0,0.371,0,0.576,0,0.67c0,0.046,0,0.063,0,0.075c0,24.398-19.099,41.665-42.856,41.665c-23.757,0-42.856-18.455-42.856-42.856
			V78.718L142.237,78.717L142.237,78.717z"/>
	</g>
</g>
<path fill="none" stroke="#FFFFFF" stroke-width="2" d="M296.881,223.901c0,50,0,62.5,0,62.5"/>
<path fill="none" stroke="#FFFFFF" stroke-width="2" d="M321.881,126.401V-38.598"/>
<path fill="none" stroke="#FFFFFF" stroke-width="2" d="M271.881,125.919v-244.518"/>
<g transform="translate(26.600,-38.862)">
	<path fill="#FFFFFF" d="M227.781,148.388c-6.609-3.992-7.5-5.625-7.5-5.625v-9.141l6.096,5c-0.001,0,17.499,14.141,43.904,14.141
		c26.406,0,43.906-14.141,43.906-14.141l6.094-5v9.141c-2.344,1.953-4.141,3.555-7.5,5.547c-7.75,4.683-22.566,11.953-42.5,11.953
		C250.403,160.263,235.582,153.022,227.781,148.388z"/>
	<path fill="#FFFFFF" d="M320.281,147.997l-6.094,5c0,0-17.5,14.141-43.906,14.141c-26.405,0-43.904-14.141-43.904-14.141l-6.096-5
		v7.891v35c0,6.021-0.061,19.225,6.017,34.063s18.358,31.343,42.188,44.219l1.797-3.281l1.798,3.281
		c47.663-25.757,48.202-66.389,48.202-78.281v-35L320.281,147.997L320.281,147.997z M312.781,162.685v28.203
		c0,11.711,0.324,45.718-42.5,69.922c-21.073-11.916-31.709-26.304-37.03-39.297c-5.489-13.399-5.47-24.604-5.47-30.625v-28.125
		c7.771,4.687,22.622,11.875,42.5,11.875C290.213,174.638,305.031,167.367,312.781,162.685z"/>
</g>
<g>
	<path fill="#FFFFFF" d="M321.881,55.151c-3.453,0-6.25-2.798-6.25-6.25c0-3.451,2.797-6.25,6.25-6.25c3.451,0,6.25,2.799,6.25,6.25
		C328.131,52.353,325.333,55.151,321.881,55.151z"/>
	<path fill="#FFFFFF" d="M271.881,4.838c-3.452,0-6.25-2.798-6.25-6.25c0-3.451,2.798-6.25,6.25-6.25c3.452,0,6.25,2.799,6.25,6.25
		C278.131,2.04,275.333,4.838,271.881,4.838z"/>
</g>
<path fill="none" stroke="#FFFFFF" stroke-width="2" d="M321.881-38.599c-3.453,0-6.25-2.798-6.25-6.25
	c0-3.451,2.797-6.25,6.25-6.25c3.451,0,6.25,2.799,6.25,6.25C328.131-41.397,325.333-38.599,321.881-38.599z"/>
<path fill="none" stroke="#FFFFFF" stroke-width="2" d="M271.881-118.599c-3.452,0-6.25-2.798-6.25-6.25
	c0-3.451,2.798-6.25,6.25-6.25c3.452,0,6.25,2.799,6.25,6.25C278.131-121.397,275.333-118.599,271.881-118.599z"/>
<path fill="none" stroke="#FFFFFF" stroke-width="2" d="M296.881,298.901c-3.452,0-6.25-2.798-6.25-6.25
	c0-3.452,2.798-6.25,6.25-6.25c3.451,0,6.25,2.798,6.25,6.25C303.131,296.103,300.333,298.901,296.881,298.901z"/>
<path fill="none" stroke="#FFFFFF" stroke-width="2" d="M159.381,298.901c-3.452,0-6.25-2.798-6.25-6.25
	c0-3.452,2.798-6.25,6.25-6.25c3.452,0,6.25,2.798,6.25,6.25C165.631,296.103,162.833,298.901,159.381,298.901z"/>
<text transform="matrix(1 0 0 1 133.5001 175.3999)" fill="#FFFFFF" font-family="'Lato-Regular'" font-size="24">AND</text>
<text transform="matrix(1 0 0 1 272.5001 174.3999)" fill="#FFFFFF" font-family="'Lato-Regular'" font-size="24">XOR</text>
<path fill="none" stroke="#FFFFFF" stroke-width="2" d="M486.881,316.901V-38.598"/>
<path fill="none" stroke="#FFFFFF" stroke-width="2" d="M486.881-38.599c-3.453,0-6.25-2.798-6.25-6.25
	c0-3.451,2.797-6.25,6.25-6.25c3.451,0,6.25,2.799,6.25,6.25C493.131-41.397,490.333-38.599,486.881-38.599z"/>
<rect x="85.229" y="-29.11" fill="none" stroke="#FFFFFF" stroke-width="2" width="283.484" height="302.985"/>
<g transform="translate(60,52)">
	<path fill="none" stroke="#FFFFFF" stroke-width="2" d="M264.381,539.574c0,50,0,62.5,0,62.5"/>
	<path fill="none" stroke="#FFFFFF" stroke-width="2" d="M289.381,442.074v-77.5h137.5"/>
	<path fill="none" stroke="#FFFFFF" stroke-width="2" d="M239.381,444.574v-130h137.5"/>
	<g>
		<path fill="#FFFFFF" d="M314.381,439.574h-3.568h-92.856h-3.574v3.568v47.623c0,28.168,22.5,49.984,50,50c27.5,0,50-21.832,50-50
			c0,0,0,0,0-47.621L314.381,439.574L314.381,439.574z M307.237,446.716c0,19.941,0,32.65,0,38.098c0,2.973,0,4.463,0,5.205
			c0,0.371,0,0.576,0,0.672c0,0.045,0,0.063,0,0.074c0,24.398-19.1,41.664-42.855,41.664c-23.758,0-42.855-18.455-42.855-42.855
			v-42.855L307.237,446.716L307.237,446.716z"/>
	</g>
</g>
<path fill="none" stroke="#FFFFFF" stroke-width="2" d="M461.881,591.902c0,210,0,262.5,0,262.5"/>
<path fill="none" stroke="#FFFFFF" stroke-width="2" d="M486.881,494.402v-165"/>
<path fill="none" stroke="#FFFFFF" stroke-width="2" d="M436.881,494.402v-165"/>
<g transform="translate(26.600,-38.862)">
	<path fill="#FFFFFF" d="M392.781,516.389c-6.609-3.992-7.5-5.625-7.5-5.625v-9.143l6.096,5c-0.002,0,17.498,14.143,43.904,14.143
		s43.906-14.143,43.906-14.143l6.094-5v9.143c-2.344,1.951-4.141,3.555-7.5,5.547c-7.75,4.682-22.566,11.953-42.5,11.953
		C415.402,528.264,400.582,521.022,392.781,516.389z"/>
	<path fill="#FFFFFF" d="M485.281,515.996l-6.094,5c0,0-17.5,14.143-43.906,14.143s-43.904-14.143-43.904-14.143l-6.096-5v7.893v35
		c0,6.02-0.061,19.225,6.018,34.063c6.076,14.838,18.357,31.342,42.188,44.219l1.797-3.281l1.797,3.281
		c47.664-25.758,48.203-66.389,48.203-78.281v-35L485.281,515.996L485.281,515.996z M477.781,530.686v28.203
		c0,11.711,0.324,45.717-42.5,69.922c-21.074-11.916-31.709-26.305-37.031-39.297c-5.488-13.4-5.469-24.605-5.469-30.625v-28.125
		c7.771,4.686,22.621,11.875,42.5,11.875C455.213,542.639,470.031,535.367,477.781,530.686z"/>
</g>
<g>
	<path fill="#FFFFFF" d="M486.881,423.152c-3.453,0-6.25-2.799-6.25-6.25s2.797-6.25,6.25-6.25c3.451,0,6.25,2.799,6.25,6.25
		S490.333,423.152,486.881,423.152z"/>
	<path fill="#FFFFFF" d="M436.881,372.838c-3.453,0-6.25-2.798-6.25-6.25c0-3.451,2.797-6.25,6.25-6.25
		c3.451,0,6.25,2.799,6.25,6.25C443.131,370.04,440.333,372.838,436.881,372.838z"/>
</g>
<path fill="none" stroke="#FFFFFF" stroke-width="2" d="M486.881,329.401c-3.453,0-6.25-2.798-6.25-6.25
	c0-3.451,2.797-6.25,6.25-6.25c3.451,0,6.25,2.799,6.25,6.25C493.131,326.603,490.333,329.401,486.881,329.401z"/>
<path fill="none" stroke="#FFFFFF" stroke-width="2" d="M436.881,329.401c-3.453,0-6.25-2.798-6.25-6.25
	c0-3.451,2.797-6.25,6.25-6.25c3.451,0,6.25,2.799,6.25,6.25C443.131,326.603,440.333,329.401,436.881,329.401z"/>
<path fill="none" stroke="#FFFFFF" stroke-width="2" d="M461.881,866.902c-3.453,0-6.25-2.799-6.25-6.25
	c0-3.453,2.797-6.25,6.25-6.25c3.451,0,6.25,2.797,6.25,6.25C468.131,864.103,465.333,866.902,461.881,866.902z"/>
<path fill="none" stroke="#FFFFFF" stroke-width="2" d="M324.381,666.902c-3.451,0-6.25-2.799-6.25-6.25
	c0-3.453,2.799-6.25,6.25-6.25s6.25,2.797,6.25,6.25C330.631,664.103,327.833,666.902,324.381,666.902z"/>
<text transform="matrix(1 0 0 1 298.5005 543.3999)" fill="#FFFFFF" font-family="'Lato-Regular'" font-size="24">AND</text>
<text transform="matrix(1 0 0 1 437.5005 542.3999)" fill="#FFFFFF" font-family="'Lato-Regular'" font-size="24">XOR</text>
<rect x="250.229" y="338.889" fill="none" stroke="#FFFFFF" stroke-width="2" width="283.484" height="302.985"/>
<polyline fill="none" stroke="#FFFFFF" stroke-width="2" points="296.881,298.901 296.631,316.458 430.631,323.151 "/>
<path fill="none" stroke="#FFFFFF" stroke-width="2" d="M136.881,731.505v-62.213"/>
<path fill="none" stroke="#FFFFFF" stroke-width="2" d="M86.881,731.505v-62.213"/>
<path fill="#FFFFFF" d="M161.881,713.027l-6.094,5c0,0-17.5,14.141-43.906,14.141c-26.405,0-43.904-14.141-43.904-14.141l-6.096-5
	v7.891v35c0,6.02-0.061,19.225,6.017,34.063s18.358,31.344,42.188,44.219l1.797-3.281l1.798,3.281
	c47.664-25.756,48.202-66.389,48.202-78.281v-35L161.881,713.027L161.881,713.027z M154.381,727.712v28.203
	c0,11.711,0.324,45.719-42.5,69.922c-21.073-11.916-31.709-26.303-37.03-39.297c-5.489-13.398-5.47-24.604-5.47-30.625v-28.125
	c7.771,4.688,22.622,11.875,42.5,11.875C131.813,739.666,146.632,732.396,154.381,727.712z"/>
<path fill="none" stroke="#FFFFFF" stroke-width="2" d="M136.881,669.291c-3.452,0-6.25-2.797-6.25-6.25
	c0-3.451,2.798-6.25,6.25-6.25c3.452,0,6.25,2.799,6.25,6.25C143.131,666.494,140.333,669.291,136.881,669.291z"/>
<path fill="none" stroke="#FFFFFF" stroke-width="2" d="M86.881,669.291c-3.452,0-6.25-2.797-6.25-6.25
	c0-3.451,2.798-6.25,6.25-6.25c3.452,0,6.25,2.799,6.25,6.25C93.131,666.494,90.333,669.291,86.881,669.291z"/>
<text transform="matrix(1 0 0 1 94.2339 780.8481)" fill="#FFFFFF" font-family="'Lato-Regular'" font-size="24">OR</text>
<line fill="none" stroke="#FFFFFF" stroke-width="2" x1="159.381" y1="298.901" x2="86.881" y2="656.791"/>
<line fill="none" stroke="#FFFFFF" stroke-width="2" x1="318.131" y1="660.652" x2="143.131" y2="663.041"/>
<path fill="none" stroke="#FFFFFF" stroke-width="2" d="M111.881,858.005v-32.168"/>
<path fill="none" stroke="#FFFFFF" stroke-width="2" d="M118.131,864.255c0,3.451-2.798,6.25-6.25,6.25
	c-3.452,0-6.25-2.799-6.25-6.25s2.798-6.25,6.25-6.25C115.333,858.005,118.131,860.804,118.131,864.255z"/>
<path fill="none" stroke="#FFFFFF" stroke-width="2" d="M-247.119,224.901c0,50,0,62.5,0,62.5"/>
<path fill="none" stroke="#FFFFFF" stroke-width="2" d="M-222.119,127.401V-37.598"/>
<path fill="none" stroke="#FFFFFF" stroke-width="2" d="M-272.119,127.401v-244.518"/>
<g transform="translate(26.600,-38.862)">
	<path fill="#FFFFFF" d="M-316.219,149.388c-6.609-3.992-7.5-5.625-7.5-5.625v-9.141l6.096,5c-0.001,0,17.499,14.141,43.904,14.141
		c26.406,0,43.906-14.141,43.906-14.141l6.094-5v9.141c-2.344,1.953-4.141,3.555-7.5,5.547c-7.75,4.683-22.566,11.953-42.5,11.953
		C-293.597,161.263-308.418,154.022-316.219,149.388z"/>
	<path fill="#FFFFFF" d="M-223.719,148.997l-6.094,5c0,0-17.5,14.141-43.906,14.141c-26.405,0-43.904-14.141-43.904-14.141l-6.096-5
		v7.891v35c0,6.021-0.061,19.225,6.017,34.063s18.358,31.343,42.188,44.219l1.797-3.281l1.798,3.281
		c47.663-25.757,48.202-66.389,48.202-78.281v-35L-223.719,148.997L-223.719,148.997z M-231.219,163.685v28.203
		c0,11.711,0.324,45.718-42.5,69.922c-21.073-11.916-31.709-26.304-37.03-39.297c-5.489-13.399-5.47-24.604-5.47-30.625v-28.125
		c7.771,4.687,22.622,11.875,42.5,11.875C-253.787,175.638-238.969,168.367-231.219,163.685z"/>
</g>
<g>
	<path fill="#FFFFFF" d="M-222.119,56.151c-3.453,0-6.25-2.798-6.25-6.25c0-3.451,2.797-6.25,6.25-6.25
		c3.451,0,6.25,2.799,6.25,6.25C-215.869,53.353-218.667,56.151-222.119,56.151z"/>
	<path fill="#FFFFFF" d="M-272.119,5.838c-3.452,0-6.25-2.798-6.25-6.25c0-3.451,2.798-6.25,6.25-6.25c3.452,0,6.25,2.799,6.25,6.25
		C-265.869,3.04-268.667,5.838-272.119,5.838z"/>
</g>
<path fill="none" stroke="#FFFFFF" stroke-width="2" d="M-222.119-37.599c-3.453,0-6.25-2.798-6.25-6.25
	c0-3.451,2.797-6.25,6.25-6.25c3.451,0,6.25,2.799,6.25,6.25C-215.869-40.397-218.667-37.599-222.119-37.599z"/>
<path fill="none" stroke="#FFFFFF" stroke-width="2" d="M-272.119-117.599c-3.452,0-6.25-2.798-6.25-6.25
	c0-3.451,2.798-6.25,6.25-6.25c3.452,0,6.25,2.799,6.25,6.25C-265.869-120.397-268.667-117.599-272.119-117.599z"/>
<path fill="none" stroke="#FFFFFF" stroke-width="2" d="M-247.119,299.901c-3.452,0-6.25-2.798-6.25-6.25
	c0-3.452,2.798-6.25,6.25-6.25c3.451,0,6.25,2.798,6.25,6.25C-240.869,297.103-243.667,299.901-247.119,299.901z"/>
<text transform="matrix(1 0 0 1 -271.4999 175.3999)" fill="#FFFFFF" font-family="'Lato-Regular'" font-size="24">XOR</text>
<path fill="none" stroke="#FFFFFF" stroke-width="2" d="M-57.119,317.901V-37.598"/>
<path fill="none" stroke="#FFFFFF" stroke-width="2" d="M-57.119-37.599c-3.453,0-6.25-2.798-6.25-6.25
	c0-3.451,2.797-6.25,6.25-6.25c3.451,0,6.25,2.799,6.25,6.25C-50.869-40.397-53.667-37.599-57.119-37.599z"/>
<rect x="-341.759" y="-28.11" fill="none" stroke="#FFFFFF" stroke-width="2" width="169.473" height="302.985"/>
<path fill="none" stroke="#FFFFFF" stroke-width="2" d="M-82.119,592.902c0,210,0,262.5,0,262.5"/>
<path fill="none" stroke="#FFFFFF" stroke-width="2" d="M-57.119,495.402v-165"/>
<path fill="none" stroke="#FFFFFF" stroke-width="2" d="M-107.119,495.402v-165"/>
<g transform="translate(26.600,-38.862)">
	<path fill="#FFFFFF" d="M-151.219,517.389c-6.609-3.992-7.5-5.625-7.5-5.625v-9.143l6.096,5c-0.002,0,17.498,14.143,43.904,14.143
		s43.906-14.143,43.906-14.143l6.094-5v9.143c-2.344,1.951-4.141,3.555-7.5,5.547c-7.75,4.682-22.566,11.953-42.5,11.953
		C-128.598,529.264-143.418,522.022-151.219,517.389z"/>
	<path fill="#FFFFFF" d="M-58.719,516.996l-6.094,5c0,0-17.5,14.143-43.906,14.143s-43.904-14.143-43.904-14.143l-6.096-5v7.893v35
		c0,6.02-0.061,19.225,6.018,34.063c6.076,14.838,18.357,31.342,42.188,44.219l1.797-3.281l1.797,3.281
		c47.664-25.758,48.203-66.389,48.203-78.281v-35L-58.719,516.996L-58.719,516.996z M-66.219,531.686v28.203
		c0,11.711,0.324,45.717-42.5,69.922c-21.074-11.916-31.709-26.305-37.031-39.297c-5.488-13.4-5.469-24.605-5.469-30.625v-28.125
		c7.771,4.686,22.621,11.875,42.5,11.875C-88.787,543.639-73.969,536.367-66.219,531.686z"/>
</g>
<path fill="none" stroke="#FFFFFF" stroke-width="2" d="M-57.119,330.401c-3.453,0-6.25-2.798-6.25-6.25
	c0-3.451,2.797-6.25,6.25-6.25c3.451,0,6.25,2.799,6.25,6.25C-50.869,327.603-53.667,330.401-57.119,330.401z"/>
<path fill="none" stroke="#FFFFFF" stroke-width="2" d="M-107.119,330.401c-3.453,0-6.25-2.798-6.25-6.25
	c0-3.451,2.797-6.25,6.25-6.25c3.451,0,6.25,2.799,6.25,6.25C-100.869,327.603-103.667,330.401-107.119,330.401z"/>
<path fill="none" stroke="#FFFFFF" stroke-width="2" d="M-82.119,867.902c-3.453,0-6.25-2.799-6.25-6.25
	c0-3.453,2.797-6.25,6.25-6.25c3.451,0,6.25,2.797,6.25,6.25C-75.869,865.103-78.667,867.902-82.119,867.902z"/>
<text transform="matrix(1 0 0 1 -106.4999 543.3999)" fill="#FFFFFF" font-family="'Lato-Regular'" font-size="24">XOR</text>
<rect x="-182.76" y="339.889" fill="none" stroke="#FFFFFF" stroke-width="2" width="172.474" height="302.985"/>
<polyline fill="none" stroke="#FFFFFF" stroke-width="2" points="-247.119,299.901 -247.369,317.458 -113.369,324.151 "/>
<g transform="translate(60,52)">
	<path fill="none" stroke="#FFFFFF" stroke-width="2" d="M645.381,172.574c0,50,0,62.5,0,62.5"/>
	<path fill="none" stroke="#FFFFFF" stroke-width="2" d="M670.381,75.074v-77.5h137.5"/>
	<path fill="none" stroke="#FFFFFF" stroke-width="2" d="M620.381,77.574v-130h137.5"/>
	<g>
		<path fill="#FFFFFF" d="M695.381,72.574h-3.569h-92.856h-3.574v3.569v47.622c0,28.169,22.5,49.984,50,50c27.5,0,50-21.831,50-50
			c0,0,0,0,0-47.62V72.574L695.381,72.574z M688.237,79.717c0,19.94,0,32.65,0,38.096c0,2.974,0,4.463,0,5.207
			c0,0.371,0,0.576,0,0.67c0,0.046,0,0.063,0,0.075c0,24.398-19.099,41.665-42.855,41.665c-23.758,0-42.856-18.455-42.856-42.856
			V79.718L688.237,79.717L688.237,79.717z"/>
	</g>
</g>
<path fill="none" stroke="#FFFFFF" stroke-width="2" d="M842.881,224.901c0,50,0,62.5,0,62.5"/>
<path fill="none" stroke="#FFFFFF" stroke-width="2" d="M867.881,127.401V-37.598"/>
<path fill="none" stroke="#FFFFFF" stroke-width="2" d="M817.881,127.401v-244.518"/>
<g transform="translate(26.600,-38.862)">
	<path fill="#FFFFFF" d="M773.781,149.388c-6.609-3.992-7.5-5.625-7.5-5.625v-9.141l6.096,5c-0.001,0,17.499,14.141,43.904,14.141
		c26.406,0,43.906-14.141,43.906-14.141l6.094-5v9.141c-2.344,1.953-4.141,3.555-7.5,5.547c-7.75,4.683-22.566,11.953-42.5,11.953
		C796.403,161.263,781.582,154.022,773.781,149.388z"/>
	<path fill="#FFFFFF" d="M866.281,148.997l-6.094,5c0,0-17.5,14.141-43.906,14.141c-26.405,0-43.904-14.141-43.904-14.141l-6.096-5
		v7.891v35c0,6.021-0.062,19.225,6.017,34.063s18.358,31.343,42.188,44.219l1.797-3.281l1.798,3.281
		c47.663-25.757,48.202-66.389,48.202-78.281v-35L866.281,148.997L866.281,148.997z M858.781,163.685v28.203
		c0,11.711,0.324,45.718-42.5,69.922c-21.073-11.916-31.709-26.304-37.03-39.297c-5.489-13.399-5.47-24.604-5.47-30.625v-28.125
		c7.771,4.687,22.621,11.875,42.5,11.875C836.213,175.638,851.031,168.367,858.781,163.685z"/>
</g>
<g>
	<path fill="#FFFFFF" d="M867.881,56.151c-3.453,0-6.25-2.798-6.25-6.25c0-3.451,2.797-6.25,6.25-6.25c3.451,0,6.25,2.799,6.25,6.25
		C874.131,53.353,871.333,56.151,867.881,56.151z"/>
	<path fill="#FFFFFF" d="M817.881,5.838c-3.452,0-6.25-2.798-6.25-6.25c0-3.451,2.798-6.25,6.25-6.25c3.451,0,6.25,2.799,6.25,6.25
		C824.131,3.04,821.333,5.838,817.881,5.838z"/>
</g>
<path fill="none" stroke="#FFFFFF" stroke-width="2" d="M867.881-37.599c-3.453,0-6.25-2.798-6.25-6.25
	c0-3.451,2.797-6.25,6.25-6.25c3.451,0,6.25,2.799,6.25,6.25C874.131-40.397,871.333-37.599,867.881-37.599z"/>
<path fill="none" stroke="#FFFFFF" stroke-width="2" d="M817.881-117.599c-3.452,0-6.25-2.798-6.25-6.25
	c0-3.451,2.798-6.25,6.25-6.25c3.451,0,6.25,2.799,6.25,6.25C824.131-120.397,821.333-117.599,817.881-117.599z"/>
<path fill="none" stroke="#FFFFFF" stroke-width="2" d="M842.881,299.901c-3.452,0-6.25-2.798-6.25-6.25
	c0-3.452,2.798-6.25,6.25-6.25c3.451,0,6.25,2.798,6.25,6.25C849.131,297.103,846.333,299.901,842.881,299.901z"/>
<path fill="none" stroke="#FFFFFF" stroke-width="2" d="M705.381,299.901c-3.452,0-6.25-2.798-6.25-6.25
	c0-3.452,2.798-6.25,6.25-6.25c3.451,0,6.25,2.798,6.25,6.25C711.631,297.103,708.833,299.901,705.381,299.901z"/>
<text transform="matrix(1 0 0 1 679.5005 176.3999)" fill="#FFFFFF" font-family="'Lato-Regular'" font-size="24">AND</text>
<text transform="matrix(1 0 0 1 818.5005 175.3999)" fill="#FFFFFF" font-family="'Lato-Regular'" font-size="24">XOR</text>
<rect x="631.229" y="-28.11" fill="none" stroke="#FFFFFF" stroke-width="2" width="283.484" height="302.985"/>
<path fill="none" stroke="#FFFFFF" stroke-width="2" d="M843.881,303.592c0,441.448,0,551.81,0,551.81"/>
<path fill="none" stroke="#FFFFFF" stroke-width="2" d="M844.881,867.902c-3.453,0-6.25-2.799-6.25-6.25
	c0-3.453,2.797-6.25,6.25-6.25c3.451,0,6.25,2.797,6.25,6.25C851.131,865.103,848.333,867.902,844.881,867.902z"/>
<path fill="none" stroke="#FFFFFF" stroke-width="2" d="M870.381,667.902c-3.451,0-6.25-2.799-6.25-6.25
	c0-3.453,2.799-6.25,6.25-6.25s6.25,2.797,6.25,6.25C876.631,665.103,873.833,667.902,870.381,667.902z"/>
<path fill="none" stroke="#FFFFFF" stroke-width="2" d="M682.881,732.505v-62.213"/>
<path fill="none" stroke="#FFFFFF" stroke-width="2" d="M632.881,732.505v-62.213"/>
<path fill="#FFFFFF" d="M707.881,714.027l-6.094,5c0,0-17.5,14.141-43.906,14.141c-26.405,0-43.904-14.141-43.904-14.141l-6.096-5
	v7.891v35c0,6.02-0.062,19.225,6.017,34.063s18.358,31.344,42.188,44.219l1.797-3.281l1.798,3.281
	c47.664-25.756,48.202-66.389,48.202-78.281v-35L707.881,714.027L707.881,714.027z M700.381,728.712v28.203
	c0,11.711,0.324,45.719-42.5,69.922c-21.073-11.916-31.709-26.303-37.03-39.297c-5.489-13.398-5.47-24.604-5.47-30.625v-28.125
	c7.771,4.688,22.621,11.875,42.5,11.875C677.813,740.666,692.631,733.396,700.381,728.712z"/>
<path fill="none" stroke="#FFFFFF" stroke-width="2" d="M682.881,670.291c-3.452,0-6.25-2.797-6.25-6.25
	c0-3.451,2.798-6.25,6.25-6.25c3.451,0,6.25,2.799,6.25,6.25C689.131,667.494,686.333,670.291,682.881,670.291z"/>
<path fill="none" stroke="#FFFFFF" stroke-width="2" d="M632.881,670.291c-3.452,0-6.25-2.797-6.25-6.25
	c0-3.451,2.798-6.25,6.25-6.25c3.451,0,6.25,2.799,6.25,6.25C639.131,667.494,636.333,670.291,632.881,670.291z"/>
<text transform="matrix(1 0 0 1 640.2339 781.8481)" fill="#FFFFFF" font-family="'Lato-Regular'" font-size="24">OR</text>
<line fill="none" stroke="#FFFFFF" stroke-width="2" x1="705.381" y1="299.901" x2="632.881" y2="657.791"/>
<line fill="none" stroke="#FFFFFF" stroke-width="2" x1="864.131" y1="661.652" x2="689.131" y2="664.041"/>
<path fill="none" stroke="#FFFFFF" stroke-width="2" d="M657.881,859.005v-32.168"/>
<path fill="none" stroke="#FFFFFF" stroke-width="2" d="M664.131,865.255c0,3.451-2.799,6.25-6.25,6.25
	c-3.452,0-6.25-2.799-6.25-6.25s2.798-6.25,6.25-6.25C661.333,859.005,664.131,861.804,664.131,865.255z"/>
<polyline fill="none" stroke="#FFFFFF" stroke-width="2" points="105.631,864.255 28.271,864.851 2.772,-44.104 -50.869,-43.849 "/>
<polyline fill="none" stroke="#FFFFFF" stroke-width="2" points="651.631,863.255 574.27,863.851 548.772,-45.104 495.131,-44.849 
	"/>
<text transform="matrix(1 0 0 1 854.1666 -94.2173)" fill="#CCFF00" font-family="'Lato-Regular'" font-size="48">1</text>
<text transform="matrix(1 0 0 1 311.1666 -91.2173)" fill="#CCFF00" font-family="'Lato-Regular'" font-size="48">1</text>
<text transform="matrix(1 0 0 1 -232.8334 -87.2173)" fill="#CCFF00" font-family="'Lato-Regular'" font-size="48">0</text>
<text transform="matrix(1 0 0 1 255.1666 -179.2173)" fill="#00FFFF" font-family="'Lato-Regular'" font-size="48">1</text>
<text transform="matrix(1 0 0 1 -287.8334 -176.2173)" fill="#00FFFF" font-family="'Lato-Regular'" font-size="48">0</text>
<text transform="matrix(1 0 0 1 799.1666 -176.2173)" fill="#00FFFF" font-family="'Lato-Regular'" font-size="48">0</text>
<text transform="matrix(1 0 0 1 446.1841 933.8325)" fill="#00FF00" font-family="'Lato-Regular'" font-size="48">0</text>
<text transform="matrix(1 0 0 1 -97.8701 939.8335)" fill="#00FF00" font-family="'Lato-Regular'" font-size="48">1</text>
<text transform="matrix(1 0 0 1 832.2388 934.8335)" fill="#00FF00" font-family="'Lato-Regular'" font-size="48">1</text>
<rect x="-322.078" y="-240.458" fill="none" stroke="#00FFFF" stroke-width="2" stroke-dasharray="2" width="1182.118" height="84.008"/>
<rect x="-246.078" y="-148.458" fill="none" stroke="#CCFF00" stroke-width="2" stroke-dasharray="2" width="1182.118" height="84.009"/>
<text transform="matrix(1 0 0 1 -398.0834 -181.4565)" fill="#00FFFF" font-family="'Lato-Regular'" font-size="48">A</text>
<text transform="matrix(1 0 0 1 -395.0834 -90.4468)" fill="#CCFF00" font-family="'Lato-Regular'" font-size="48">B</text>
<rect x="-125.06" y="881.593" fill="none" stroke="#00FF00" stroke-width="2" stroke-dasharray="2" width="1041.104" height="84.008"/>
<text transform="matrix(1 0 0 1 -373.0703 937.6538)" fill="#00FF00" font-family="'Lato-Regular'" font-size="48">OUTPUT</text>
</svg>
