<?xml version="1.0" encoding="utf-8"?>
<!-- Generator: Adobe Illustrator 12.0.0, SVG Export Plug-In . SVG Version: 6.00 Build 51448)  -->
<!DOCTYPE svg PUBLIC "-//W3C//DTD SVG 1.1//EN" "http://www.w3.org/Graphics/SVG/1.1/DTD/svg11.dtd" [
	<!ENTITY ns_svg "http://www.w3.org/2000/svg">
	<!ENTITY ns_xlink "http://www.w3.org/1999/xlink">
]>
<svg  version="1.1" id="Layer_1" xmlns="&ns_svg;" xmlns:xlink="&ns_xlink;" width="237.5" height="424.978"
	 viewBox="176.381 192.902 237.5 424.978" overflow="visible" enable-background="new 176.381 192.902 237.5 424.978"
	 xml:space="preserve">
<g transform="translate(60,52)">
	<path fill="none" stroke="#FFFFFF" stroke-width="2" d="M166.381,449.673c0,50,0,62.5,0,62.5"/>
	<path fill="none" stroke="#FFFFFF" stroke-width="2" d="M191.381,352.173v-77.5h137.5"/>
	<path fill="none" stroke="#FFFFFF" stroke-width="2" d="M141.381,354.673v-130h137.5"/>
	<g>
		<path fill="#FFFFFF" d="M216.381,349.673h-3.569h-92.856h-3.574v3.569v47.622c0,28.169,22.5,49.985,50,50c27.5,0,50-21.831,50-50
			c0,0,0,0,0-47.62V349.673z M209.237,356.816c0,19.941,0,32.651,0,38.096c0,2.974,0,4.463,0,5.207c0,0.371,0,0.576,0,0.67
			c0,0.046,0,0.063,0,0.075c0,24.399-19.099,41.665-42.856,41.665s-42.856-18.455-42.856-42.856v-42.856H209.237z"/>
	</g>
</g>
<g transform="translate(60.03125,-3.6378174)">
	<path fill="none" stroke="#FFFFFF" stroke-width="2" d="M303.85,505.638c0,50,0,62.5,0,62.5"/>
	<path fill="none" stroke="#FFFFFF" stroke-width="2" d="M328.85,408.138V243.139"/>
	<path fill="none" stroke="#FFFFFF" stroke-width="2" d="M278.85,408.138V243.139"/>
	<g transform="translate(26.600,-38.862)">
		<path fill="#FFFFFF" d="M234.75,430.125c-6.61-3.992-7.5-5.625-7.5-5.625v-9.141l6.095,5c-0.001,0,17.499,14.141,43.905,14.141
			s43.906-14.141,43.906-14.141l6.094-5v9.141c-2.344,1.953-4.141,3.555-7.5,5.547c-7.749,4.683-22.568,11.953-42.5,11.953
			C257.372,442,242.55,434.759,234.75,430.125z"/>
		<path fill="#FFFFFF" d="M327.25,429.734l-6.094,5c0,0-17.5,14.141-43.906,14.141s-43.905-14.141-43.905-14.141l-6.095-5v7.891v35
			c0,6.021-0.061,19.224,6.016,34.063s18.359,31.343,42.188,44.219l1.797-3.281l1.797,3.281
			c47.664-25.757,48.203-66.389,48.203-78.281v-35V429.734L327.25,429.734z M319.75,444.422v28.203
			c0,11.711,0.324,45.718-42.5,69.922c-21.074-11.916-31.709-26.304-37.031-39.297c-5.489-13.4-5.469-24.604-5.469-30.625V444.5
			c7.771,4.686,22.622,11.875,42.5,11.875C297.181,456.375,312.001,449.104,319.75,444.422z"/>
	</g>
</g>
<g>
	<path fill="#FFFFFF" d="M388.881,333.25c-3.452,0-6.25-2.798-6.25-6.25c0-3.451,2.798-6.25,6.25-6.25s6.25,2.799,6.25,6.25
		C395.131,330.452,392.333,333.25,388.881,333.25z"/>
	<path fill="#FFFFFF" d="M338.881,282.938c-3.452,0-6.25-2.798-6.25-6.25c0-3.451,2.798-6.25,6.25-6.25s6.25,2.799,6.25,6.25
		C345.131,280.14,342.333,282.938,338.881,282.938z"/>
</g>
<g>
	<path fill="none" stroke="#FFFFFF" stroke-width="2" d="M388.881,239.5c-3.452,0-6.25-2.798-6.25-6.25
		c0-3.451,2.798-6.25,6.25-6.25s6.25,2.799,6.25,6.25C395.131,236.702,392.333,239.5,388.881,239.5z"/>
	<path fill="none" stroke="#FFFFFF" stroke-width="2" d="M338.881,239.5c-3.452,0-6.25-2.798-6.25-6.25
		c0-3.451,2.798-6.25,6.25-6.25s6.25,2.799,6.25,6.25C345.131,236.702,342.333,239.5,338.881,239.5z"/>
	<path fill="none" stroke="#FFFFFF" stroke-width="2" d="M363.881,577c-3.452,0-6.25-2.798-6.25-6.25s2.798-6.25,6.25-6.25
		s6.25,2.798,6.25,6.25S367.333,577,363.881,577z"/>
	<path fill="none" stroke="#FFFFFF" stroke-width="2" d="M226.381,577c-3.452,0-6.25-2.798-6.25-6.25s2.798-6.25,6.25-6.25
		s6.25,2.798,6.25,6.25S229.833,577,226.381,577z"/>
</g>
<text transform="matrix(1 0 0 1 329.5 214.5)" fill="#FFFFFF" font-family="'Lato-Regular'" font-size="24">A</text>
<text transform="matrix(1 0 0 1 382.5 213.5)" fill="#FFFFFF" font-family="'Lato-Regular'" font-size="24">B</text>
<text transform="matrix(1 0 0 1 340.5 611.5)" fill="#FFFFFF" font-family="'Lato-Regular'" font-size="24">SUM</text>
<text transform="matrix(1 0 0 1 186.5 613.5)" fill="#FFFFFF" font-family="'Lato-Regular'" font-size="24">CARRY</text>
<text transform="matrix(1 0 0 1 200.5 453.5)" fill="#FFFFFF" font-family="'Lato-Regular'" font-size="24">AND</text>
<text transform="matrix(1 0 0 1 339.5 452.5)" fill="#FFFFFF" font-family="'Lato-Regular'" font-size="24">XOR</text>
</svg>
