<?xml version="1.0" encoding="utf-8"?>
<!-- Generator: Adobe Illustrator 12.0.0, SVG Export Plug-In . SVG Version: 6.00 Build 51448)  -->
<!DOCTYPE svg PUBLIC "-//W3C//DTD SVG 1.1//EN" "http://www.w3.org/Graphics/SVG/1.1/DTD/svg11.dtd" [
	<!ENTITY ns_svg "http://www.w3.org/2000/svg">
	<!ENTITY ns_xlink "http://www.w3.org/1999/xlink">
]>
<svg  version="1.1"
	 id="svg2464" sodipodi:version="0.32" inkscape:version="0.46" sodipodi:docname="n-Kanal-MOSFET (Schema).svg" xmlns:inkscape="http://www.inkscape.org/namespaces/inkscape" xmlns:cc="http://creativecommons.org/ns#" xmlns:sodipodi="http://sodipodi.sourceforge.net/DTD/sodipodi-0.dtd" xmlns:dc="http://purl.org/dc/elements/1.1/" xmlns:svg="http://www.w3.org/2000/svg" xmlns:rdf="http://www.w3.org/1999/02/22-rdf-syntax-ns#" inkscape:output_extension="org.inkscape.output.svg.inkscape"
	 xmlns="&ns_svg;" xmlns:xlink="&ns_xlink;" width="1515.75" height="789.25" viewBox="-439.25 3.25 1515.75 789.25"
	 overflow="visible" enable-background="new -439.25 3.25 1515.75 789.25" xml:space="preserve">
<sodipodi:namedview  inkscape:pageshadow="2" inkscape:window-x="-4" inkscape:guide-bbox="true" showguides="true" bordercolor="#666666" inkscape:cx="367.02899" pagecolor="#ffffff" inkscape:zoom="0.69" gridtolerance="10.0" inkscape:window-width="1400" borderopacity="1.0" inkscape:window-height="964" guidetolerance="10.0" inkscape:pageopacity="0.0" inkscape:current-layer="layer2" inkscape:window-y="-4" objecttolerance="10.0" id="base" inkscape:cy="550" showgrid="false">
	</sodipodi:namedview>
<rect id="rect2480" x="-109.5" y="766.5" fill="#4D4D4D" stroke="#000000" stroke-width="2" stroke-linejoin="bevel" width="925" height="25"/>
<g id="g3343" transform="translate(-28,0)">
	
		<rect id="rect2478" x="-81.5" y="444.15" fill="#FFEBEB" stroke="#000000" stroke-width="2" stroke-linejoin="bevel" width="925" height="321.85"/>
	
		<polygon id="rect3285" inkscape:transform-center-y="-130.00001" inkscape:transform-center-x="-130.00001" fill="#FFE1E1" stroke="#000000" stroke-width="2" stroke-linejoin="bevel" points="
		-81.5,444.15 843.5,444.15 1103.5,221 178.5,221 	">
	</polygon>
	
		<polygon id="rect3271" inkscape:transform-center-y="-130.00006" inkscape:transform-center-x="-130.00006" fill="#FFD7D7" stroke="#000000" stroke-width="2" stroke-linejoin="bevel" points="
		1103.5,221 843.5,444.15 843.5,766 1103.5,542.85 	">
	</polygon>
</g>
<path id="rect3287" sodipodi:nodetypes="ccccc" fill="#FFD42A" stroke="#000000" stroke-width="2" stroke-linejoin="bevel" d="
	M170.5,281l-200,200h765l200-200H170.5z"/>
<g id="g3299" transform="translate(-28,0)">
	
		<rect id="rect3252" x="-81.5" y="441" fill="#B0C5E3" stroke="#000000" stroke-width="2" stroke-linejoin="bevel" width="150" height="40"/>
	
		<polygon id="rect3254" inkscape:transform-center-y="-129.99999" inkscape:transform-center-x="-129.99999" fill="#A7BEDF" stroke="#000000" stroke-width="2" stroke-linejoin="bevel" points="
		178.5,181 328.5,181 68.5,441 -81.5,441 	">
	</polygon>
	
		<polygon id="rect3256" inkscape:transform-center-y="-130" inkscape:transform-center-x="-130" fill="#8DABD5" stroke="#000000" stroke-width="2" stroke-linejoin="bevel" points="
		328.5,221 68.5,481 68.5,441 328.5,181 	">
	</polygon>
</g>
<g id="g2466" transform="translate(122,0)">
	<path id="rect2468" sodipodi:nodetypes="ccccc" fill="#4D4D4D" stroke="#000000" stroke-width="2" stroke-linejoin="bevel" d="
		M-81.5,455v26H87.476v-26H-81.5z"/>
	
		<path id="rect2470" sodipodi:nodetypes="ccccc" fill="#4D4D4D" stroke="#000000" stroke-width="1.6818" stroke-linejoin="bevel" d="
		M118.5,255l-200,200H87.476l200-200H118.5z"/>
</g>
<g id="g3309" transform="translate(-34,0)">
	
		<rect id="rect3277" x="243.5" y="440.8" fill="#B0C5E3" stroke="#000000" stroke-width="2" stroke-linejoin="bevel" width="280" height="40"/>
	
		<path id="rect3279" sodipodi:nodetypes="ccccc" fill="#A7BEDF" stroke="#000000" stroke-width="1.6818" stroke-linejoin="bevel" d="
		M503.5,180.813l-260,260h280l260-260H503.5z"/>
	
		<polygon id="rect3281" inkscape:transform-center-y="-130" inkscape:transform-center-x="-130" fill="#8DABD5" stroke="#000000" stroke-width="2" stroke-linejoin="bevel" points="
		783.5,220.8 523.5,480.8 523.5,440.8 783.5,180.8 	">
	</polygon>
</g>
<g id="g2476" transform="translate(570.8987,0)">
	<path id="path2478" sodipodi:nodetypes="ccccc" fill="#4D4D4D" stroke="#000000" stroke-width="2" stroke-linejoin="bevel" d="
		M-81.5,455v26H94.531v-26H-81.5z"/>
	
		<path id="path2480" sodipodi:nodetypes="ccccc" fill="#4D4D4D" stroke="#000000" stroke-width="1.6818" stroke-linejoin="bevel" d="
		M118.5,255l-200,200H94.241l200-200H118.5z"/>
</g>
<g id="g3304" transform="translate(-28,0)">
	
		<rect id="rect3265" x="693.5" y="440.8" fill="#B0C5E3" stroke="#000000" stroke-width="2" stroke-linejoin="bevel" width="150" height="40"/>
	
		<polygon id="rect3267" inkscape:transform-center-y="-129.99999" inkscape:transform-center-x="-129.99999" fill="#A7BEDF" stroke="#000000" stroke-width="2" stroke-linejoin="bevel" points="
		953.5,180.8 1103.5,180.8 843.5,440.8 693.5,440.8 	">
	</polygon>
	
		<polygon id="rect3269" inkscape:transform-center-y="-130" inkscape:transform-center-x="-130" fill="#8DABD5" stroke="#000000" stroke-width="2" stroke-linejoin="bevel" points="
		1103.5,220.8 843.5,480.8 843.5,440.8 1103.5,180.8 	">
	</polygon>
</g>
<polygon id="rect3273" inkscape:transform-center-y="-130.00006" inkscape:transform-center-x="-130.00006" fill="#4D4D4D" stroke="#000000" stroke-width="2" stroke-linejoin="bevel" points="
	1075.5,518.552 815.5,767.558 815.5,791.5 1075.5,542.494 ">
</polygon>
<g id="g3314" transform="translate(-16,-40)">
	
		<rect id="rect3316" x="243.5" y="440.8" fill="#4D4D4D" stroke="#000000" stroke-width="1.6818" stroke-linejoin="bevel" width="248" height="40"/>
	
		<path id="path3318" sodipodi:nodetypes="ccccc" fill="#4D4D4D" stroke="#000000" stroke-width="1.6818" stroke-linejoin="bevel" d="
		M405.5,280.813l-162,160h250l160-160H405.5z"/>
	
		<path id="rect3320" sodipodi:nodetypes="ccccc" fill="#4D4D4D" stroke="#000000" stroke-width="1.6818" stroke-linejoin="bevel" d="
		M653.5,280.813l-162,160v40l162-160V280.813z"/>
</g>
<path id="rect3348" fill="#FFCC00" stroke="#000000" stroke-width="2" stroke-linejoin="bevel" d="M5.063,480.877v57.156
	c0,32.434,23.25,58.531,52.146,58.531h140.68c28.896,0,52.174-26.098,52.174-58.531v-57.156H5.063z"/>
<path id="path3353" fill="#FFCC00" stroke="#000000" stroke-width="2" stroke-linejoin="bevel" d="M453.063,480.877v57.156
	c0,32.434,23.251,58.531,52.146,58.531h140.68c28.896,0,52.174-26.098,52.174-58.531v-57.156H453.063z"/>
<g id="g3363" transform="translate(4,0)">
	<text transform="matrix(1 0 0 1 55.0635 559.0508)" font-family="'Lato-Regular'" font-size="48">n-type</text>
</g>
<g id="g3369" transform="translate(452,0)">
	<text transform="matrix(1 0 0 1 60.0635 560.0508)" font-family="'Lato-Regular'" font-size="48">n-type</text>
</g>
<g id="g3379" transform="translate(632,260)">
	<text transform="matrix(1 0 0 1 -356.9365 420.0508)" font-family="'Lato-Regular'" font-size="48">p-type</text>
</g>
<g id="g3397" transform="matrix(1,0,0,-1,66.936708,1112.6469)">
	<path id="path3399" sodipodi:nodetypes="cc" fill="none" stroke="#000000" stroke-width="7" d="M367.671,777.621v218.124"/>
	
		<path id="path3401" sodipodi:cy="986.18988" sodipodi:ry="15.822784" sodipodi:cx="523.73419" sodipodi:type="arc" sodipodi:rx="15.822784" fill="#FFFFFF" stroke="#000000" stroke-width="6.3291" stroke-linejoin="bevel" d="
		M385.171,1013.411c0,9.665-7.835,17.5-17.5,17.5s-17.5-7.835-17.5-17.5s7.835-17.5,17.5-17.5S385.171,1003.746,385.171,1013.411z"
		/>
</g>
<g id="g3403" transform="matrix(1,0,0,-1,338.93671,1112.6469)">
	<path id="path3405" sodipodi:nodetypes="cc" fill="none" stroke="#000000" stroke-width="7" d="M367.671,777.621v218.124"/>
	
		<path id="path3407" sodipodi:cy="986.18988" sodipodi:ry="15.822784" sodipodi:cx="523.73419" sodipodi:type="arc" sodipodi:rx="15.822784" fill="#FFFFFF" stroke="#000000" stroke-width="6.3291" stroke-linejoin="bevel" d="
		M385.171,1013.411c0,9.665-7.835,17.5-17.5,17.5s-17.5-7.835-17.5-17.5s7.835-17.5,17.5-17.5S385.171,1003.746,385.171,1013.411z"
		/>
</g>
<g id="g3409" transform="matrix(1,0,0,-1,-131.06329,1112.6469)">
	<path id="path3411" sodipodi:nodetypes="cc" fill="none" stroke="#000000" stroke-width="7" d="M367.671,777.621v218.124"/>
	
		<path id="path3413" sodipodi:cy="986.18988" sodipodi:ry="15.822784" sodipodi:cx="523.73419" sodipodi:type="arc" sodipodi:rx="15.822784" fill="#FFFFFF" stroke="#000000" stroke-width="6.3291" stroke-linejoin="bevel" d="
		M385.171,1013.411c0,9.665-7.835,17.5-17.5,17.5s-17.5-7.835-17.5-17.5s7.835-17.5,17.5-17.5S385.171,1003.746,385.171,1013.411z"
		/>
</g>
<text transform="matrix(1 0 0 1 160.3179 62.1396)" font-family="'Lato-Regular'" font-size="48">Source</text>
<text transform="matrix(1 0 0 1 402.3672 63.0635)" font-family="'Lato-Regular'" font-size="48">Gate</text>
<text transform="matrix(1 0 0 1 656.0469 64.2275)" font-family="'Lato-Regular'" font-size="48">Drain</text>
<g id="g3442" transform="translate(-332.81013,40.746835)">
	
		<rect id="rect3444" x="-105.19" y="26.753" fill="#FFEBEB" stroke="#000000" stroke-width="2" stroke-linejoin="bevel" width="50" height="50"/>
	<text transform="matrix(1 0 0 1 -40.1015 69.6477)" font-family="'Lato-Regular'" font-size="48">doped semi-conductor</text>
</g>
<g id="g3450" transform="translate(47.18987,-19.253165)">
	
		<rect id="rect3452" x="-483.19" y="23.753" fill="#B0C5E3" stroke="#000000" stroke-width="2.5" stroke-linejoin="bevel" width="50" height="50"/>
	<text transform="matrix(1 0 0 1 -418.1015 66.6477)" font-family="'Lato-Regular'" font-size="48">Insulator</text>
</g>
<g id="g3484" transform="translate(47.18987,40.746835)">
	
		<rect id="rect3486" x="-485.19" y="90.753" fill="#333333" stroke="#000000" stroke-width="2.5" stroke-linejoin="bevel" width="50" height="50"/>
	<text transform="matrix(1 0 0 1 -420.1015 133.6477)" font-family="'Lato-Regular'" font-size="48">Metal</text>
</g>
<path fill="none" d=""/>
<polygon fill="#FFCC00" stroke="#000000" stroke-width="2" stroke-linejoin="bevel" points="-388,67.5 -438,117.5 -388,117.5 "/>
</svg>
