<?xml version="1.0" encoding="utf-8"?>
<!-- Generator: Adobe Illustrator 12.0.0, SVG Export Plug-In . SVG Version: 6.00 Build 51448)  -->
<!DOCTYPE svg PUBLIC "-//W3C//DTD SVG 1.1//EN" "http://www.w3.org/Graphics/SVG/1.1/DTD/svg11.dtd" [
	<!ENTITY ns_svg "http://www.w3.org/2000/svg">
	<!ENTITY ns_xlink "http://www.w3.org/1999/xlink">
]>
<svg  version="1.1"
	 id="svg2" sodipodi:docname="HydrogenLineParallel.svg" xmlns:svg="http://www.w3.org/2000/svg" sodipodi:version="0.32" xmlns:sodipodi="http://sodipodi.sourceforge.net/DTD/sodipodi-0.dtd" xmlns:inkscape="http://www.inkscape.org/namespaces/inkscape" xmlns:dc="http://purl.org/dc/elements/1.1/" xmlns:cc="http://creativecommons.org/ns#" inkscape:output_extension="org.inkscape.output.svg.inkscape" inkscape:version="0.46" xmlns:rdf="http://www.w3.org/1999/02/22-rdf-syntax-ns#"
	 xmlns="&ns_svg;" xmlns:xlink="&ns_xlink;" width="272.622" height="276.918" viewBox="102.588 -53.813 272.622 276.918"
	 overflow="visible" enable-background="new 102.588 -53.813 272.622 276.918" xml:space="preserve">
<sodipodi:namedview  inkscape:zoom="1.4142136" inkscape:current-layer="svg2" inkscape:window-width="1280" id="base" objecttolerance="10.0" guidetolerance="10.0" gridtolerance="10.0" inkscape:pageshadow="2" inkscape:window-x="0" showgrid="false" inkscape:cx="392.52303" bordercolor="#666666" inkscape:cy="160.18586" inkscape:pageopacity="0.0" borderopacity="1.0" inkscape:window-height="948" inkscape:window-y="0" pagecolor="#ffffff">
	</sodipodi:namedview>
<defs>
	
	
		<inkscape:perspective  sodipodi:type="inkscape:persp3d" inkscape:vp_x="0 : 100 : 1" id="perspective27" inkscape:vp_z="500 : 100 : 1" inkscape:vp_y="0 : 1000 : 0" inkscape:persp3d-origin="250 : 66.666667 : 1">
		</inkscape:perspective>
</defs>
<radialGradient id="path4662_12_" cx="168.4547" cy="719.2866" r="37.2521" gradientTransform="matrix(1 0 0 1 0 -613.2793)" gradientUnits="userSpaceOnUse">
	<stop  offset="0" style="stop-color:#64B4FF"/>
	<stop  offset="1" style="stop-color:#0000FF"/>
</radialGradient>
<path id="path4662" sodipodi:rx="37.253143" sodipodi:type="arc" sodipodi:cy="113.10955" sodipodi:ry="36.355476" sodipodi:cx="234.989" fill="url(#path4662_12_)" d="
	M192.242,120.724c0.014,20.574-16.654,37.264-37.229,37.275c-20.574,0.015-37.264-16.653-37.276-37.229c0-0.016,0-0.031,0-0.048
	c-0.014-20.574,16.654-37.264,37.229-37.277c20.574-0.013,37.264,16.655,37.276,37.229
	C192.242,120.692,192.242,120.707,192.242,120.724z"/>
<line id="line10" fill="none" stroke="#FFFFFF" stroke-width="4" x1="154.989" y1="94.106" x2="154.979" y2="40.105"/>
<path id="path12" fill="#FFFFFF" d="M150.876,30.659c-1.996,6.613-3.835,10.913-5.962,16.218l20.176-0.004
	c-0.901-1.898-3.973-9.603-5.97-16.216c-2.14-7.077-3.604-13.495-4.127-17.657C154.474,17.162,153.012,23.58,150.876,30.659z"/>
<line id="line14" fill="none" stroke="#FFFFFF" stroke-width="4" x1="154.979" y1="158.106" x2="154.979" y2="192.106"/>
<radialGradient id="path4662_13_" cx="304.4537" cy="714.2886" r="37.2522" gradientTransform="matrix(1 0 0 1 0 -613.2793)" gradientUnits="userSpaceOnUse">
	<stop  offset="0" style="stop-color:#FFC0C0"/>
	<stop  offset="1" style="stop-color:#FF0000"/>
</radialGradient>
<path id="path4662_1_" sodipodi:rx="37.253143" sodipodi:type="arc" sodipodi:cy="113.10955" sodipodi:ry="36.355476" sodipodi:cx="234.989" fill="url(#path4662_13_)" d="
	M328.243,115.724c0.014,20.574-16.654,37.264-37.229,37.275c-20.574,0.015-37.265-16.653-37.276-37.229c0-0.016,0-0.031,0-0.048
	c-0.014-20.574,16.654-37.264,37.23-37.276c20.574-0.014,37.264,16.654,37.275,37.228
	C328.243,115.692,328.243,115.707,328.243,115.724z"/>
<line id="line10_1_" fill="none" stroke="#FFFFFF" stroke-width="4" x1="292.015" y1="142" x2="292.025" y2="196"/>
<path id="path12_1_" fill="#FFFFFF" d="M296.128,205.447c1.996-6.613,3.836-10.912,5.963-16.218l-20.176,0.004
	c0.9,1.897,3.973,9.603,5.969,16.216c2.141,7.077,3.604,13.495,4.128,17.657C292.53,218.944,293.993,212.526,296.128,205.447z"/>
<line id="line14_1_" fill="none" stroke="#FFFFFF" stroke-width="4" x1="292.025" y1="78" x2="292.025" y2="44"/>
<text transform="matrix(1 0 0 1 137.588 -6.3491)" fill="#FFFFFF" font-family="'Lato-Regular'" font-size="32">up</text>
<text transform="matrix(1 0 0 1 254.5885 16.6509)" fill="#FFFFFF" font-family="'Lato-Regular'" font-size="32">down</text>
</svg>
